<?xml version="1.0" encoding="UTF-8"?>
<svg width="109px" height="99px" viewBox="0 0 109 99" version="1.1" xmlns="http://www.w3.org/2000/svg" xmlns:xlink="http://www.w3.org/1999/xlink">
    <!-- Generator: Sketch 51.3 (57544) - http://www.bohemiancoding.com/sketch -->
    <title>Quality</title>
    <desc>Created with Sketch.</desc>
    <defs></defs>
    <g id="Page-1" stroke="none" stroke-width="1" fill="none" fill-rule="evenodd">
        <g id="Why-Arbisoft-Copy" transform="translate(-1084.000000, -2192.000000)">
            <g id="Quality" transform="translate(1084.000000, 2192.000000)">
                <g id="Group-8-Copy-2" transform="translate(9.000000, 0.000000)">
                    <path d="M5.73197988,19.0064508 C-6.94303033,39.3812736 3.42680639,65.2298007 17.2136495,78.5442632 C29.5103955,90.420334 51.0921231,98.6679565 62.9928108,91.0708572 C71.6871492,85.5207221 69.5203091,75.1474059 82.7170829,64.6913376 C91.2954738,57.8953242 95.5264085,59.651507 98.3206278,54.8174071 C104.993347,43.2746433 91.1089246,15.53776 68.5864153,5.15352512 C49.7615971,-3.52567242 19.2335463,-2.69642776 5.73197988,19.0064508" id="Fill-10" fill="#6376E8"></path>
                    <path d="M94.761788,40.1425409 L93.9986372,43 L93.2354865,40.1425409 C92.594985,37.7338215 91.065958,35.7014646 89,34.5 C91.065958,33.2985354 92.594985,31.2661785 93.2354865,28.8574591 L93.9986372,26 L94.761788,28.8574591 C95.405015,31.2661785 96.9313164,33.2985354 99,34.5 C96.9313164,35.7014646 95.405015,37.7338215 94.761788,40.1425409" id="Fill-165" fill="#FFFFFF"></path>
                </g>
                <path d="M45.1726966,30.0494623 C32.2321307,30.0494623 21.7040691,40.5775239 21.7040691,53.5180898 C21.7040691,66.4586557 32.2321307,76.9867173 45.1726966,76.9867173 C58.1132625,76.9867173 68.6413241,66.4586557 68.6413241,53.5180898 C68.6413241,40.5775239 58.1132625,30.0494623 45.1726966,30.0494623 Z M57.5246058,69.1598418 C54.1257133,71.8495583 49.8336013,73.4576004 45.1726966,73.4576004 C40.5117919,73.4576004 36.2196799,71.8495583 32.8207874,69.1598418 L32.8207874,66.241615 C32.8207874,64.123792 34.3317788,62.3048851 36.4137813,61.9165058 L39.0549724,61.4238411 C40.6423692,62.9542426 42.7988361,63.8984579 45.1726966,63.8984579 C47.5465571,63.8984579 49.703024,62.9542426 51.2904208,61.4240175 L53.9316119,61.9166823 C56.0136144,62.3048851 57.5246058,64.123792 57.5246058,66.241615 L57.5246058,69.1598418 Z M39.8790212,55.075842 L39.8790212,52.2525485 C39.8790212,49.3336159 42.253764,46.9588731 45.1726966,46.9588731 C48.0916292,46.9588731 50.466372,49.3336159 50.466372,52.2525485 L50.466372,55.075842 C50.466372,57.9947746 48.0916292,60.3695174 45.1726966,60.3695174 C42.253764,60.3695174 39.8790212,57.9947746 39.8790212,55.075842 Z M61.0263721,65.5961396 C60.7392784,62.0606702 58.1169681,59.1073287 54.578499,58.4472074 L53.4105378,58.2292844 C53.7870946,57.2492487 53.9954889,56.1866316 53.9954889,55.0756656 L53.9954889,52.252372 C53.9954889,47.3874843 50.0375843,43.4295797 45.1726966,43.4295797 C40.3078089,43.4295797 36.3499043,47.3874843 36.3499043,52.252372 L36.3499043,55.0756656 C36.3499043,56.1866316 36.5582986,57.2492487 36.9348554,58.2292844 L35.7668942,58.4472074 C32.2284251,59.1071523 29.6061148,62.0606702 29.3190211,65.5961396 C26.7572351,62.2418904 25.233186,58.0549461 25.233186,53.5180898 C25.233186,42.5233025 34.1779093,33.5785792 45.1726966,33.5785792 C56.1674839,33.5785792 65.1122072,42.5233025 65.1122072,53.5180898 C65.1122072,58.0549461 63.5881581,62.2418904 61.0263721,65.5961396 Z M71.6408971,87.9679175 C72.2034383,88.763557 72.0142776,89.8648179 71.2186382,90.4273591 C63.5719241,95.8334369 54.5654413,98.6907864 45.1726966,98.6907864 C39.9764248,98.6907864 34.8812623,97.815036 30.0285501,96.0878862 C29.1104503,95.76109 28.6310198,94.751939 28.957816,93.8338392 C29.2846122,92.915563 30.2935867,92.4361325 31.211863,92.7631052 C35.683607,94.3547369 40.3808616,95.1616695 45.1726966,95.1616695 C53.8317379,95.1616695 62.133809,92.528066 69.181279,87.5456587 C69.9770949,86.9827646 71.0781794,87.1722781 71.6408971,87.9679175 Z M62.0769902,11.6167081 C62.9806206,11.9816188 63.4173488,13.0100035 63.0522617,13.9136339 C62.687351,14.8174407 61.6589663,15.2543454 60.7553359,14.8889053 C55.803632,12.8887783 50.5607759,11.8745101 45.1726966,11.8745101 C36.2911445,11.8745101 27.814735,14.6332208 20.6598034,19.8526083 C20.3460649,20.0814715 19.9820365,20.1917564 19.6213607,20.1917564 C19.076818,20.1917564 18.5398628,19.9404833 18.1941858,19.4670523 C17.6199985,18.6797063 17.7927488,17.5757985 18.5799183,17.0016112 C26.3429168,11.3386137 35.5383839,8.3453932 45.1726966,8.3453932 C51.0158555,8.3453932 56.7033803,9.44594831 62.0769902,11.6167081 Z M81.4274912,26.5731056 C87.2657093,34.4017457 90.3453932,43.6852642 90.3453932,53.5180898 C90.3453932,59.3967163 89.2317804,65.1161797 87.0356109,70.5176696 C86.7569871,71.2026712 86.0970422,71.6180482 85.4003946,71.6180482 C85.1791189,71.6180482 84.9541377,71.5760517 84.7363912,71.4876473 C83.8336431,71.1206192 83.3993853,70.0911758 83.7664134,69.1884277 C85.7901855,64.2111376 86.8162763,58.9388134 86.8162763,53.5180898 C86.8162763,44.5384282 84.0310972,36.0556664 78.7474798,28.8823833 C77.8590246,29.3057009 76.880224,29.5292704 75.8668381,29.5292704 C74.0758113,29.5292704 72.3918931,28.8319169 71.1254695,27.5653169 C69.8590459,26.2988933 69.161516,24.6149751 69.161516,22.8239483 C69.161516,21.0329214 69.8588695,19.3490033 71.1254695,18.0825797 C72.3918931,16.8161561 74.0758113,16.1186261 75.8668381,16.1186261 C77.657865,16.1186261 79.3417831,16.8159796 80.6082067,18.0825797 C81.8746303,19.3490033 82.5721603,21.0329214 82.5721603,22.8239483 C82.5721603,24.1801879 82.1716055,25.4744915 81.4274912,26.5731056 Z M78.1127681,25.0697018 C78.712718,24.469752 79.0430433,23.6721715 79.0430433,22.8237718 C79.0430433,21.9753721 78.712718,21.1776152 78.1127681,20.5778418 C77.5128182,19.9778919 76.7152378,19.6475666 75.8668381,19.6475666 C75.0184384,19.6475666 74.2206815,19.9778919 73.6209081,20.5778418 C73.0209582,21.1777917 72.6906329,21.9753721 72.6906329,22.8237718 C72.6906329,23.6721715 73.0209582,24.4699284 73.6209081,25.0697018 C74.220858,25.6698282 75.0184384,25.9999771 75.8668381,25.9999771 C76.7152378,25.9999771 77.5129947,25.6696517 78.1127681,25.0697018 Z M45.1726966,78.766451 C48.8699759,78.766451 51.8780188,81.7744938 51.8780188,85.4717731 C51.8780188,89.1690525 48.8699759,92.1770953 45.1726966,92.1770953 C41.8484449,92.1770953 39.0828524,89.7450044 38.5580728,86.5670346 C28.5659076,84.5725542 19.9049253,78.0694504 15.1992008,68.9422718 C14.7527675,68.07605 15.0927979,67.0118448 15.9590196,66.5652351 C16.8255943,66.1186253 17.8894466,66.4588322 18.3360563,67.3250539 C22.4993556,75.3996734 30.1173074,81.1817786 38.9251009,83.0414468 C39.9007253,80.5424791 42.3324633,78.766451 45.1726966,78.766451 Z M45.1726966,88.6479784 C46.9240209,88.6479784 48.3489018,87.2230974 48.3489018,85.4717731 C48.3489018,83.7204489 46.9240209,82.2955679 45.1726966,82.2955679 C43.4213723,82.2955679 41.9964914,83.7204489 41.9964914,85.4717731 C41.9964914,87.2230974 43.4213723,88.6479784 45.1726966,88.6479784 Z M18.2217129,80.468897 C20.285717,82.5330775 20.285717,85.8913851 18.2217129,87.9553892 C17.1897992,88.987303 15.8340889,89.5032599 14.4785551,89.5032599 C13.1230213,89.5032599 11.7674875,88.987303 10.7353972,87.9553892 C9.03312767,86.2531196 8.73632894,83.6710412 9.84182482,81.6601504 C9.83141392,81.6477985 9.81976784,81.6368582 9.8095334,81.6241534 C3.39201073,73.5601213 0,63.8411097 0,53.5180898 C0,48.7253726 0.747466964,44.0058845 2.22193201,39.4907323 C2.52437733,38.5643391 3.52064704,38.0582638 4.44704023,38.361062 C5.37343343,38.6635073 5.87915588,39.659777 5.57671056,40.5861702 C4.21800055,44.7469991 3.52911692,49.0980473 3.52911692,53.5180898 C3.52911692,62.9852989 6.62450537,71.9002011 12.4803691,79.3102879 C14.3935034,78.5335293 16.6722542,78.9197911 18.2217129,80.468897 Z M15.7262744,85.4599506 C16.0595995,85.1266255 16.2431135,84.6835449 16.2431135,84.2122313 C16.2431135,83.7409178 16.0595995,83.2978371 15.7262744,82.964512 C15.3929493,82.6311869 14.9498686,82.4476729 14.4785551,82.4476729 C14.0072415,82.4476729 13.5641609,82.6311869 13.2308358,82.964512 C12.8975107,83.2978371 12.7139966,83.7409178 12.7139966,84.2122313 C12.7139966,84.6835449 12.8975107,85.1266255 13.2308358,85.4599506 C13.5641609,85.7932757 14.0072415,85.9767898 14.4785551,85.9767898 C14.9498686,85.9767898 15.3929493,85.7932757 15.7262744,85.4599506 Z M77.0032138,56.6969419 C77.9663098,56.8458706 78.6262546,57.7473835 78.476973,58.710656 C77.6823923,63.8471092 75.6644433,68.8055185 72.6412252,73.0499874 C69.6732379,77.2169922 65.7331553,80.708524 61.246589,83.1473203 C60.9789055,83.2927199 60.6900472,83.3618906 60.405424,83.3618906 C59.7797115,83.3618906 59.1735857,83.0282126 58.8536713,82.4397323 C58.3883572,81.5833921 58.7050954,80.5121287 59.5612592,80.0466382 C67.7953948,75.5706592 73.5630306,67.3929894 74.9896761,58.171054 C75.1386048,57.207958 76.0402942,56.5478367 77.0032138,56.6969419 Z M31.3727907,24.6530896 C31.8418103,25.5073123 31.529307,26.5799874 30.6750843,27.0490071 C22.5030611,31.535044 16.7763631,39.6894216 15.3562465,48.8619494 C15.2212577,49.7336413 14.4699087,50.3568833 13.6146273,50.3568833 C13.5248112,50.3568833 13.4341129,50.3500015 13.3425323,50.3358851 C12.3794363,50.1867799 11.7196679,49.2850905 11.8685967,48.322171 C12.6601776,43.2097157 14.6645395,38.2715989 17.6649948,34.04107 C20.6102193,29.8885345 24.521716,26.4008847 28.9768732,23.9553832 C29.8309195,23.48654 30.9037711,23.7986904 31.3727907,24.6530896 Z M74.2561492,36.4788075 C74.7495197,37.3192667 74.4682491,38.4005881 73.6277899,38.8939586 C73.3472251,39.0585919 73.0396625,39.1369383 72.7361585,39.1369383 C72.1307385,39.1369383 71.5415524,38.8251409 71.2128152,38.2652465 C66.6277865,30.4549578 58.910843,25.1683407 50.0197622,23.7339311 C49.1995955,25.5978342 47.3360453,26.9029016 45.1726966,26.9029016 C42.253764,26.9029016 39.8790212,24.5281588 39.8790212,21.6092262 C39.8790212,18.6902936 42.253764,16.3155509 45.1726966,16.3155509 C47.6053169,16.3155509 49.6587336,17.9655895 50.2757997,20.2046377 C50.3070324,20.2078139 50.338265,20.209402 50.3698506,20.2143428 C60.3932485,21.7666249 69.0994035,27.694659 74.2561492,36.4788075 Z M45.1726966,23.3737847 C46.1456741,23.3737847 46.9372551,22.5822038 46.9372551,21.6092262 C46.9372551,20.6362487 46.1456741,19.8446678 45.1726966,19.8446678 C44.1997191,19.8446678 43.4081381,20.6362487 43.4081381,21.6092262 C43.4081381,22.5822038 44.1997191,23.3737847 45.1726966,23.3737847 Z M15.725745,21.5760525 C16.0539529,21.9042604 16.2427606,22.3595165 16.2427606,22.8235954 C16.2427606,23.2876742 16.0539529,23.7429303 15.725745,24.0711382 C15.3975371,24.3993461 14.9440456,24.5881538 14.4782022,24.5881538 C14.0141233,24.5881538 13.5588672,24.3993461 13.2306593,24.0711382 C12.9024515,23.7429303 12.7136437,23.2876742 12.7136437,22.8235954 C12.7136437,22.3595165 12.9024515,21.9042604 13.2306593,21.5760525 C13.5588672,21.2478447 14.0141233,21.0590369 14.4782022,21.0590369 C14.942281,21.0590369 15.3975371,21.2478447 15.725745,21.5760525 Z M77.1147339,82.9650414 C77.4429417,83.2932493 77.6317495,83.7485054 77.6317495,84.2125842 C77.6317495,84.6766631 77.4429417,85.1319192 77.1147339,85.4601271 C76.786526,85.7883349 76.3312699,85.9771427 75.867191,85.9771427 C75.4031122,85.9771427 74.9478561,85.7883349 74.6196482,85.4601271 C74.2914403,85.1319192 74.1026326,84.6766631 74.1026326,84.2125842 C74.1026326,83.7485054 74.2914403,83.2932493 74.6196482,82.9650414 C74.9478561,82.6368335 75.4031122,82.4480258 75.867191,82.4480258 C76.3312699,82.4480258 76.786526,82.6368335 77.1147339,82.9650414 Z" id="user-1" fill="#FFFFFF" fill-rule="nonzero"></path>
            </g>
        </g>
    </g>
</svg>