<?xml version="1.0" encoding="UTF-8"?>
<svg width="100px" height="95px" viewBox="0 0 100 95" version="1.1" xmlns="http://www.w3.org/2000/svg" xmlns:xlink="http://www.w3.org/1999/xlink">
    <!-- Generator: Sketch 51.3 (57544) - http://www.bohemiancoding.com/sketch -->
    <title>Seamless Collaboration</title>
    <desc>Created with Sketch.</desc>
    <defs></defs>
    <g id="Page-1" stroke="none" stroke-width="1" fill="none" fill-rule="evenodd">
        <g id="Why-Arbisoft-Copy" transform="translate(-987.000000, -694.000000)">
            <g id="Seamless-Collaboration" transform="translate(987.000000, 694.000000)">
                <g id="Group-4">
                    <path d="M5.73197988,20.0064508 C-6.94303033,40.3812736 3.42680639,66.2298007 17.2136495,79.5442632 C29.5103955,91.420334 51.0921231,99.6679565 62.9928108,92.0708572 C71.6871492,86.5207221 69.5203091,76.1474059 82.7170829,65.6913376 C91.2954738,58.8953242 95.5264085,60.651507 98.3206278,55.8174071 C104.993347,44.2746433 91.1089246,16.53776 68.5864153,6.15352512 C49.7615971,-2.52567242 19.2335463,-1.69642776 5.73197988,20.0064508" id="Fill-10-Copy-2" fill="#F4F4F4"></path>
                    <path d="M75.761788,14.1425409 L74.9986372,17 L74.2354865,14.1425409 C73.594985,11.7338215 72.065958,9.70146458 70,8.5 C72.065958,7.29853542 73.594985,5.26617847 74.2354865,2.85745913 L74.9986372,0 L75.761788,2.85745913 C76.405015,5.26617847 77.9313164,7.29853542 80,8.5 C77.9313164,9.70146458 76.405015,11.7338215 75.761788,14.1425409" id="Fill-165-Copy-2" fill="#FF57A4"></path>
                    <path d="M6.45707277,74.3191417 L5.99918234,76 L5.54129191,74.3191417 C5.15699101,72.902248 4.23957482,71.7067439 3,71 C4.23957482,70.2932561 5.15699101,69.097752 5.54129191,67.6808583 L5.99918234,66 L6.45707277,67.6808583 C6.84300899,69.097752 7.75878986,70.2932561 9,71 C7.75878986,71.7067439 6.84300899,72.902248 6.45707277,74.3191417" id="Fill-165-Copy-3" fill="#FF57A4"></path>
                </g>
                <path d="M76.8234314,17.2851508 C74.7658278,17.2851508 73.0207461,18.6487107 72.4439486,20.519529 L66.7046793,20.519529 C65.9603681,20.519529 65.3570218,21.1228753 65.3570218,21.8671865 C65.3570218,22.6114978 65.9603681,23.2148441 66.7046793,23.2148441 L72.4439486,23.2148441 C73.0208808,25.0856623 74.7658278,26.4492223 76.8234314,26.4492223 C79.3500198,26.4492223 81.4054671,24.3937749 81.4054671,21.8671865 C81.4054671,19.3405981 79.3500198,17.2851508 76.8234314,17.2851508 Z M76.8234314,23.7539071 C75.8541961,23.7539071 75.0540918,23.0190295 74.9491093,22.0771516 C74.9598905,22.0085558 74.9670331,21.9387472 74.9670331,21.8671865 C74.9670331,21.7956259 74.9597558,21.7258173 74.9491093,21.6572215 C75.0540918,20.7154784 75.8541961,19.9804659 76.8234314,19.9804659 C77.8638231,19.9804659 78.710152,20.8267949 78.710152,21.8671865 C78.710152,22.9075782 77.8638231,23.7539071 76.8234314,23.7539071 Z M62.5483686,20.9146622 C62.799033,21.1653265 62.9418847,21.5130221 62.9418847,21.8674561 C62.9418847,22.22189 62.799033,22.5695857 62.5483686,22.82025 C62.2963567,23.0709143 61.9500087,23.2151136 61.5955747,23.2151136 C61.2397931,23.2151136 60.8934452,23.0709143 60.6414332,22.82025 C60.3907689,22.5695857 60.2479172,22.22189 60.2479172,21.8674561 C60.2479172,21.5130221 60.3907689,21.1653265 60.6414332,20.9146622 C60.8934452,20.6639979 61.2397931,20.5197985 61.5955747,20.5197985 C61.9500087,20.5197985 62.2963567,20.6639979 62.5483686,20.9146622 Z M83.9506532,61.3801021 C84.4769135,61.9063624 84.4769135,62.7596991 83.9506532,63.2860942 L64.69357,82.5431774 C64.1701398,83.0666076 63.4751528,83.3439556 62.7662849,83.3439556 C62.414142,83.3439556 62.0586299,83.2754946 61.7188854,83.1347991 C60.6953395,82.710826 60.0339092,81.7209716 60.0339092,80.6130623 L60.0339092,77.1695277 L37.9859618,77.1695277 C37.2416506,77.1695277 36.6383043,76.5661814 36.6383043,75.8218701 C36.6383043,75.0775588 37.2416506,74.4742125 37.9859618,74.4742125 L61.381432,74.4742125 C62.1257432,74.4742125 62.7290895,75.0775588 62.7290895,75.8218701 L62.7290895,80.6130623 C62.7290895,80.6285603 62.731111,80.6348943 62.731111,80.6348943 C62.7365016,80.6406892 62.7602204,80.6529529 62.773697,80.6501229 C62.7739665,80.649449 62.7793572,80.6456756 62.7877126,80.6373201 L81.0918672,62.3331655 L62.7877126,44.0290109 C62.7631853,44.0044836 62.7707321,44.0149953 62.7705974,44.0149953 C62.7625114,44.0149953 62.7383884,44.0249679 62.7300329,44.0342668 C62.7303024,44.0349406 62.7292243,44.0414094 62.7292243,44.0532688 L62.7267985,56.6934881 C64.5976167,57.2702856 65.9611767,59.0153674 65.9611767,61.0729709 C65.9611767,63.5995593 63.9057293,65.6550066 61.3791409,65.6550066 C58.8525525,65.6550066 56.7971052,63.5995593 56.7971052,61.0729709 C56.7971052,59.0153674 58.1606651,57.2704203 60.0314834,56.6934881 L60.0314834,50.1919837 L39.6569225,50.1919837 L39.6569225,53.6360574 C39.6569225,54.7439667 38.9954921,55.7338212 37.9719462,56.1577942 C36.9484003,56.5817673 35.780655,56.3495659 34.9972617,55.5661726 L15.7400436,36.3089546 C15.2137834,35.7826943 15.2137834,34.9293575 15.7400436,34.4030972 L34.9971269,15.146014 C35.780655,14.3626206 36.9481308,14.1302845 37.9718114,14.5542575 C38.9953574,14.9783654 39.6567877,15.9682198 39.6567877,17.0761291 L39.6567877,20.519529 L56.0581846,20.519529 C56.8024958,20.519529 57.4058421,21.1228753 57.4058421,21.8671865 C57.4058421,22.6114978 56.8024958,23.2148441 56.0581846,23.2148441 L38.3091301,23.2148441 C37.5648189,23.2148441 36.9614726,22.6114978 36.9614726,21.8671865 L36.9614726,17.0762639 C36.9614726,17.0607658 36.9594511,17.0544318 36.9594511,17.0544318 C36.9540604,17.0486369 36.9293983,17.0396076 36.9169999,17.0390685 C36.9167303,17.0397424 36.9114745,17.0435158 36.9029842,17.0518713 L18.5988296,35.3560259 L36.9029842,53.6603152 C36.9272421,53.6847078 36.9196952,53.6743309 36.9199647,53.6743309 C36.9281854,53.6743309 36.9523085,53.6643582 36.960664,53.6550594 C36.9603944,53.6542508 36.9614726,53.6479168 36.9614726,53.6360574 L36.9614726,42.7922656 C35.0906543,42.2154681 33.7270944,40.4703863 33.7270944,38.4127828 C33.7270944,35.8861944 35.7825417,33.8307471 38.3091301,33.8307471 C40.8357185,33.8307471 42.8911659,35.8861944 42.8911659,38.4127828 C42.8911659,40.4703863 41.5276059,42.2153334 39.6567877,42.7922656 L39.6567877,47.4966686 L60.0339092,47.4966686 L60.0339092,44.0532688 C60.0339092,42.9453595 60.6952047,41.9553702 61.7188854,41.5313972 C62.7424313,41.1071545 63.9101766,41.3397602 64.69357,42.1231536 L83.9506532,61.3801021 Z M38.3091301,40.2995034 C39.3495218,40.2995034 40.1958507,39.4531744 40.1958507,38.4127828 C40.1958507,37.3723911 39.3495218,36.5260622 38.3091301,36.5260622 C37.2688733,36.5260622 36.4224095,37.3723911 36.4224095,38.4127828 C36.4224095,39.4531744 37.2687385,40.2995034 38.3091301,40.2995034 Z M63.2657268,61.0728362 C63.2657268,60.0324445 62.4193978,59.1861156 61.3790062,59.1861156 C60.3386145,59.1861156 59.4922856,60.0324445 59.4922856,61.0728362 C59.4922856,62.1132278 60.3386145,62.9595567 61.3790062,62.9595567 C62.4193978,62.9595567 63.2657268,62.1132278 63.2657268,61.0728362 Z M32.7840036,74.8694805 C33.0360156,75.1201448 33.1788673,75.4678404 33.1788673,75.8222744 C33.1788673,76.1767083 33.0360156,76.524404 32.7840036,76.7750683 C32.5333393,77.0257326 32.1869913,77.169932 31.8312097,77.169932 C31.4767758,77.169932 31.1290802,77.0257326 30.8784158,76.7750683 C30.6277515,76.524404 30.4835522,76.1767083 30.4835522,75.8222744 C30.4835522,75.4678404 30.6277515,75.1201448 30.8784158,74.8694805 C31.1290802,74.6174685 31.4767758,74.4746168 31.8312097,74.4746168 C32.1869913,74.4746168 32.5333393,74.6174685 32.7840036,74.8694805 Z M22.8676697,71.2448207 C25.3942581,71.2448207 27.4497055,73.300268 27.4497055,75.8268564 C27.4497055,78.3534448 25.3942581,80.4088921 22.8676697,80.4088921 C20.3410813,80.4088921 18.285634,78.3534448 18.285634,75.8268564 C18.285634,73.300268 20.3410813,71.2448207 22.8676697,71.2448207 Z M22.8676697,77.713577 C23.9080614,77.713577 24.7543903,76.8672481 24.7543903,75.8268564 C24.7543903,74.7864648 23.9080614,73.9401358 22.8676697,73.9401358 C21.8272781,73.9401358 20.9809491,74.7864648 20.9809491,75.8268564 C20.9809491,76.8672481 21.8272781,77.713577 22.8676697,77.713577 Z M64.3101614,25.9346866 C65.0544727,25.9346866 65.6578189,26.5380329 65.6578189,27.2823442 C65.6578189,28.0266554 65.0544727,28.6300017 64.3101614,28.6300017 L49.1155919,28.6300017 C48.3712806,28.6300017 47.7679343,28.0266554 47.7679343,27.2823442 C47.7679343,26.5380329 48.3712806,25.9346866 49.1155919,25.9346866 L64.3101614,25.9346866 Z M57.6365611,69.0597287 C58.3808724,69.0597287 58.9842187,69.663075 58.9842187,70.4073863 C58.9842187,71.1516976 58.3808724,71.7550439 57.6365611,71.7550439 L42.4421264,71.7550439 C41.6978151,71.7550439 41.0944688,71.1516976 41.0944688,70.4073863 C41.0944688,69.663075 41.6978151,69.0597287 42.4421264,69.0597287 L57.6365611,69.0597287 Z" id="transfer" fill="#525DEA" fill-rule="nonzero"></path>
            </g>
        </g>
    </g>
</svg>