<?xml version="1.0" encoding="UTF-8"?>
<svg width="1000px" height="1000px" viewBox="0 0 1000 1000" version="1.1" xmlns="http://www.w3.org/2000/svg" xmlns:xlink="http://www.w3.org/1999/xlink">
    <!-- Generator: Sketch 51.3 (57544) - http://www.bohemiancoding.com/sketch -->
    <title>Home</title>
    <desc>Created with Sketch.</desc>
    <defs>
        <polygon id="path-1" points="0.264324194 0 722.457972 0 722.457972 1023.7093 0.264324194 1023.7093"></polygon>
        <polygon id="path-3" points="0.395183065 0.769386316 381.800714 0.769386316 381.800714 178.47126 0.395183065 178.47126"></polygon>
        <polygon id="path-5" points="159.036 128.716 159.036 34.8 140.484 34.8 140.484 128.716 128.568 128.716 128.568 60.372 110.016 60.372 110.016 128.716 98.096 128.716 98.096 29.372 79.548 29.372 79.548 128.716 67.632 128.716 67.632 14.892 49.084 14.892 49.084 128.716 37.164 128.716 37.164 60.372 18.612 60.372 18.612 128.716 4.24 128.716 4.24 0.524 0.168 0.524 0.168 132.788 172.7 132.788 172.7 128.716"></polygon>
        <path d="M87.7814032,0.223774869 C92.1370081,0.223774869 95.6654476,3.7431623 95.6654476,8.0974555 L95.6654476,65.1466859 C95.6654476,69.5009791 92.1370081,73.0203665 87.7814032,73.0203665 L31.937754,73.0203665 L12.1936774,92.7624921 L12.1936774,73.0203665 L7.89401613,73.0203665 C3.53841129,73.0203665 0.00197983871,69.5009791 0.00197983871,65.1466859 L0.00197983871,8.0974555 C0.00197983871,3.7431623 3.53841129,0.223774869 7.89401613,0.223774869" id="path-7"></path>
        <linearGradient x1="-0.00022556391%" y1="50.0000479%" x2="100.001864%" y2="50.0000479%" id="linearGradient-9">
            <stop stop-color="#525DE9" offset="0%"></stop>
            <stop stop-color="#4B28C3" offset="100%"></stop>
        </linearGradient>
        <path d="M89.516,0.408 C73.104,0.308 52.524,0.18 50.376,0.18 C50.376,0.18 1.516,4.704 0.612,23.704 C-0.296,42.708 25.496,141.724 25.496,141.724 L46.76,141.724 C46.76,141.724 48.572,42.708 43.14,39.092 C43.14,39.092 69.368,38.66 89.516,36.912 C109.668,38.66 135.896,39.092 135.896,39.092 C130.468,42.708 132.272,141.724 132.272,141.724 L153.54,141.724 C153.54,141.724 179.332,42.708 178.424,23.704 C177.52,4.704 128.656,0.18 128.656,0.18 C126.508,0.18 105.928,0.308 89.516,0.408" id="path-10"></path>
        <linearGradient x1="-0.00138049918%" y1="49.9995874%" x2="100.000975%" y2="49.9995874%" id="linearGradient-12">
            <stop stop-color="#525DE9" offset="0%"></stop>
            <stop stop-color="#4B28C3" offset="100%"></stop>
        </linearGradient>
        <path d="M40.192,0.44 L0.828,20.668 L3.572,44.552 C3.572,44.552 51.052,46.724 65.984,44.552 L51.732,135.772 L70.268,135.772 C70.268,135.772 110.1,26.092 96.524,12.52 C85.396,1.392 54.648,0.392 43.932,0.392 C41.58,0.392 40.192,0.44 40.192,0.44" id="path-13"></path>
        <linearGradient x1="0.000235491999%" y1="50.0010261%" x2="99.9988063%" y2="50.0010261%" id="linearGradient-15">
            <stop stop-color="#525DE9" offset="0%"></stop>
            <stop stop-color="#4B28C3" offset="100%"></stop>
        </linearGradient>
        <path d="M88.864,1.68 L2.896,1.68 C2.896,1.68 -8.916,51.788 20.04,61.06 C49,70.328 130.952,34.744 130.952,34.744 L172.112,129.408 L192.024,123.98 C192.024,123.98 168.492,3.36 153.108,1.68 C147.98,1.124 139.132,0.936 129.616,0.936 C110.58,0.936 88.864,1.68 88.864,1.68" id="path-16"></path>
        <linearGradient x1="-0.000323600109%" y1="50.0006034%" x2="99.9996982%" y2="50.0006034%" id="linearGradient-18">
            <stop stop-color="#4B28C3" offset="0%"></stop>
            <stop stop-color="#3F02A8" offset="100%"></stop>
        </linearGradient>
        <path d="M67.54,80.152 C73.204,111.92 90.42,143.872 91.696,176.068 C79.708,178.6 66.484,146.476 61.892,138.26 C53.876,123.912 42.668,110.556 32.436,97.764 C23.288,86.332 12.932,75.04 0.26,67.564 C-0.3,76.824 7.532,91.04 11.076,99.536 C16.684,112.972 24.348,126.076 31.704,138.636 C40.436,153.528 49.604,167.756 61.7,180.144 C62.856,181.324 64.328,182.616 65.94,184 L157.436,184 L157.436,118.82 C155.756,122.424 154.272,125.856 152.968,128.732 C149.004,137.488 143.984,150.12 140.92,162.512 C141.5,151.46 141.796,140.352 142.516,129.576 C143.692,112.004 140.884,94.432 138.812,77.032 C137.436,65.48 138.824,46.712 132.556,36.828 C129.224,40.964 128.452,47.38 127.088,52.744 C124.008,64.844 121.148,76.54 118.648,88.808 C112.936,116.844 114.904,146.932 119.252,175.172 C114.94,155.92 106.476,137.744 102.42,118.3 C97.72,95.768 91.328,73.496 84.96,51.372 C80.616,36.272 76.748,13.164 66.96,0.576 C59.796,25.96 62.992,54.632 67.54,80.152" id="path-19"></path>
        <linearGradient x1="52.975222%" y1="49.9726945%" x2="110.185097%" y2="149.836188%" id="linearGradient-21">
            <stop stop-color="#DD8790" offset="0%"></stop>
            <stop stop-color="#9C3860" offset="100%"></stop>
        </linearGradient>
    </defs>
    <g id="Home" stroke="none" stroke-width="1" fill="none" fill-rule="evenodd">
        <g id="Group-8" transform="translate(5.000000, -21.000000)">
            <g id="Group-171">
                <g id="Group-10">
                    <g id="Group-7" transform="translate(264.733871, 0.000000)">
                        <g id="Group-3">
                            <mask id="mask-2" fill="white">
                                <use xlink:href="#path-1"></use>
                            </mask>
                            <g id="Clip-2"></g>
                            <path d="M722.45957,0 L722.45957,1023.7093 L0.264324194,1023.7093 C3.82872742,995.88526 9.79870323,968.73233 18.5099129,942.872912 C52.1120056,843.083052 121.134356,774.927412 188.450429,713.953741 C255.762506,652.980069 326.722901,591.172921 368.21703,496.990085 C405.223687,413.003805 414.638187,310.242656 404.528389,213.380789 C396.756231,139.060671 377.315848,65.3737775 341.068425,8.57831255 C339.206304,5.67196944 337.304223,2.80351161 335.354191,0 L722.45957,0 Z" id="Fill-1" fill="#F7F7F7" mask="url(#mask-2)"></path>
                        </g>
                        <g id="Group-6" transform="translate(340.657258, 845.236842)">
                            <mask id="mask-4" fill="white">
                                <use xlink:href="#path-3"></use>
                            </mask>
                            <g id="Clip-5"></g>
                            <path d="M381.802312,0.769386316 L381.802312,178.47126 L0.395183065,178.47126 C29.7975137,123.691434 79.2875742,79.4856758 135.267086,51.2269074 C207.630066,14.7030284 290.014933,2.35529684 371.053159,0.889228421 C374.637542,0.813328421 378.217929,0.785365263 381.802312,0.769386316" id="Fill-4" fill="#F7F7F7" mask="url(#mask-4)"></path>
                        </g>
                    </g>
                    <path d="M132.971821,439.513792 C132.971821,476.221428 103.205857,505.978223 66.4869093,505.978223 C29.7679617,505.978223 0.00199798387,476.221428 0.00199798387,439.513792 C0.00199798387,402.806155 29.7679617,373.04936 66.4869093,373.04936 C103.205857,373.04936 132.971821,402.806155 132.971821,439.513792" id="Fill-8" fill="#F7F7F7"></path>
                </g>
                <path d="M564,980 C564,980 438.863857,989 284.5,989 C130.136143,989 5,980 5,980 C5,980 130.136143,971 284.5,971 C438.863857,971 564,980 564,980" id="Fill-11" fill="#CED2D8"></path>
                <polygon id="Fill-13" fill="#F7F7F7" points="438 638 700 638 700 439 438 439"></polygon>
                <g id="Group-16" transform="translate(587.000000, 483.000000)">
                    <mask id="mask-6" fill="white">
                        <use xlink:href="#path-5"></use>
                    </mask>
                    <g id="Clip-15"></g>
                </g>
                <polygon id="Fill-17" fill="#253C78" points="457 476 562 476 562 470 457 470"></polygon>
                <polygon id="Fill-18" fill="#253C78" points="457 495 562 495 562 489 457 489"></polygon>
                <polygon id="Fill-19" fill="#253C78" points="457 513 508 513 508 507 457 507"></polygon>
                <polygon id="Fill-20" fill="#F065A6" points="458 612 485 612 485 585 458 585"></polygon>
                <polygon id="Fill-21" fill="#253C78" points="678 529.005057 660.92625 533.302301 665.516527 538.047083 644.827772 558.147233 574.179119 503 539 529.448251 541.644069 532.985113 574.127105 508.565995 645.139859 564 668.585381 541.227652 673.179993 545.972434"></polygon>
                <polygon id="Fill-22" fill="#353537" points="552 543 560 543 560 535 552 535"></polygon>
                <polygon id="Fill-23" fill="#353537" points="565 543 573 543 573 535 565 535"></polygon>
                <polygon id="Fill-24" fill="#353537" points="552 555 560 555 560 547 552 547"></polygon>
                <polygon id="Fill-25" fill="#F065A6" points="565 555 573 555 573 547 565 547"></polygon>
                <polygon id="Fill-26" fill="#F065A6" points="552 566 560 566 560 558 552 558"></polygon>
                <polygon id="Fill-27" fill="#F065A6" points="565 566 573 566 573 558 565 558"></polygon>
                <g id="Group-72" transform="translate(380.000000, 424.000000)">
                    <path d="M456.121485,179.474101 C456.121485,179.474101 422.407505,206.522651 393.508667,196.907253 C364.613824,187.291855 353.397142,132.831232 353.397142,132.831232 C353.397142,132.831232 359.866614,121.709808 353.397142,117.874834 C353.397142,117.874834 354.691836,108.666902 348.222364,107.903902 C341.752892,107.136907 316.302574,114.806855 342.180461,134.748719 C342.180461,134.748719 349.513062,232.932038 405.156912,236.383515 C460.796767,239.834991 460.101469,225.817363 460.101469,225.817363 L456.121485,179.474101 Z" id="Fill-28" fill="#525DEA"></path>
                    <path d="M353.397142,132.832031 C353.397142,132.832031 354.787739,130.427183 355.630888,127.471057 C355.630888,127.471057 355.63888,127.471057 355.63888,127.471057 C361.600864,125.63746 358.488005,110.409418 355.862654,107.852769 C353.920614,105.959251 351.195364,107.24157 349.904667,108.040523 C348.601981,105.487869 341.55709,92.1253817 337.669013,93.3517743 C334.799908,94.2585859 337.688993,103.370643 339.918743,109.310858 C331.555183,112.362858 323.507304,120.360376 342.180461,134.749518 C342.180461,134.749518 342.979654,145.431518 346.044562,159.868596 C350.895667,158.833952 355.63888,157.351895 360.246231,155.442397 C355.507013,143.066617 353.397142,132.832031 353.397142,132.832031" id="Fill-30" fill="#D7DADF"></path>
                    <polygon id="Fill-32" fill="#D7DADF" points="521.297717 280.536847 497.002233 311.376428 502.312874 317.476433 534.2966 291.877983"></polygon>
                    <path d="M472.932521,171.784979 C472.932521,171.784979 512.144953,175.815696 520.960058,188.694816 C529.775162,201.569942 561.603046,236.140633 558.250429,262.573989 C554.893816,289.01134 539.9449,296.805125 539.9449,296.805125 L521.299715,280.538445 C521.299715,280.538445 533.499404,270.711324 531.465457,260.880209 C529.435505,251.053088 502.314872,224.959287 502.314872,224.959287 L480.956425,182.255256 L472.932521,171.784979 Z" id="Fill-34" fill="#525DEA"></path>
                    <path d="M558.494582,550.269331 C558.494582,550.269331 507.102441,557.567765 443.698421,557.567765 C380.298397,557.567765 328.906256,550.269331 328.906256,550.269331 C328.906256,550.269331 380.298397,542.966902 443.698421,542.966902 C507.102441,542.966902 558.494582,550.269331 558.494582,550.269331" id="Fill-36" fill="#CED2D8"></path>
                    <path d="M492.369708,532.803821 L493.388679,539.02367 L494.791264,547.480586 L459.323054,556.297031 C457.317079,556.796376 455.750659,554.519361 456.965433,552.849549 C458.651732,550.520602 461.109252,548.143717 463.726611,545.954586 C470.008272,540.737424 477.240974,536.562895 477.240974,536.562895 L492.369708,532.803821 Z" id="Fill-38" fill="#FFFFFF"></path>
                    <path d="M431.025609,532.803821 L430.626012,539.091581 L430.098544,547.648366 L393.551423,548.295518 C391.485508,548.331471 390.474528,545.762837 392.02896,544.400623 C394.194774,542.511099 397.123819,540.745413 400.16475,539.203434 C407.457391,535.528251 415.441335,533.07946 415.441335,533.07946 L431.025609,532.803821 Z" id="Fill-40" fill="#FFFFFF"></path>
                    <path d="M498.266158,313.458499 C498.266158,313.458499 493.770694,369.333269 481.519057,419.064091 L494.006456,535.335703 L474.418222,537.333085 C474.418222,537.333085 454.202621,460.997132 448.340537,443.06064 C441.755182,422.927028 448.340537,373.136284 448.340537,373.136284 C448.340537,373.136284 431.026008,411.322237 431.026008,429.698153 C431.026008,448.07407 433.07594,533.162551 433.07594,533.162551 C433.07594,533.162551 420.017117,536.785803 413.487706,533.162551 C406.962291,529.535305 401.887412,419.779153 401.887412,419.779153 L427.269799,300.791101 C427.269799,300.791101 461.271488,309.835248 498.266158,313.458499" id="Fill-42" fill="#A163BD"></path>
                    <path d="M507.378163,317.589884 C508.393139,305.825303 512.021477,227.45202 507.150393,209.883047 C496.273369,170.630492 472.932921,171.784979 472.932921,171.784979 C465.792127,188.37923 450.823231,177.157937 450.823231,177.157937 C450.823231,177.157937 424.541752,193.077073 433.248965,236.584052 C438.8633,264.667246 427.470796,290.381544 418.683663,305.098256 C444.505606,323.00279 478.011796,327.341104 507.378163,317.589884" id="Fill-44" fill="#525DEA"></path>
                    <path d="M449.148122,178.447846 C449.148122,178.447846 439.717638,184.080464 439.657698,189.097888 C439.597759,194.115312 445.923376,202.024946 445.923376,202.024946 L455.194021,191.406862 L464.160973,204.281987 C464.160973,204.281987 493.01186,182.150993 474.039005,169.998919 C455.062154,157.846846 449.148122,178.447846 449.148122,178.447846" id="Fill-46" fill="#FFFFFF"></path>
                    <path d="M431.786441,133.594631 C431.786441,133.594631 424.729562,172.79126 446.195901,172.387788 C467.666235,171.984317 475.634195,156.556537 474.127715,147.284689 C472.621235,138.016836 471.374494,119.604966 452.969066,117.355914 C434.563639,115.110857 431.786441,133.594631 431.786441,133.594631" id="Fill-48" fill="#D7DADF"></path>
                    <path d="M493.02145,124.900826 C491.602881,122.092506 488.941567,120.187004 486.31222,118.453276 C486.328204,118.429307 486.348184,118.409334 486.35218,118.38137 C486.416115,116.599705 486.076458,114.810051 485.373168,113.176192 C484.629918,111.462438 483.503055,109.940433 482.252317,108.558245 C482.564002,110.66748 482.735829,113.264077 482.260309,115.345349 C481.329248,113.160213 480.362224,110.911161 478.659942,109.249339 C477.481131,108.098847 476.010615,107.295899 474.520119,106.59282 C467.73097,103.401004 460.054716,102.118684 452.594244,102.933616 C450.887966,103.117375 449.185684,103.408993 447.479406,103.321108 C445.769131,103.229229 444.00691,102.705915 442.804123,101.491506 C443.65926,103.720585 445.001906,106.381098 446.884006,107.851171 C430.952083,113.343972 433.265748,128.699847 433.265748,128.699847 C438.45651,126.694475 443.855063,129.307051 443.855063,129.307051 C443.275648,143.656245 469.884797,150.463323 469.884797,150.463323 C473.820825,146.700255 479.247349,148.945313 479.247349,148.945313 C482.416152,151.122459 482.412156,153.762998 482.412156,153.762998 C488.442071,149.4127 489.900599,127.513402 489.900599,127.513402 C491.443043,127.093951 493.129341,127.209799 494.603853,127.832983 C493.916547,126.958129 493.520946,125.895522 493.02145,124.900826" id="Fill-50" fill="#0E0E15"></path>
                    <path d="M468.409885,156.034022 C469.033256,159.900954 472.677579,162.525514 476.545675,161.898336 C480.413772,161.271158 483.039123,157.623938 482.411756,153.761001 C481.784389,149.894069 478.136071,147.269509 474.27197,147.896687 C470.403873,148.52786 467.782518,152.171085 468.409885,156.034022" id="Fill-52" fill="#D7DADF"></path>
                    <path d="M472.593264,153.95275 L473.456393,159.265786 C473.456393,159.265786 473.56828,160.228525 473.684163,161.782488 C473.85599,163.827807 474.059784,166.879807 474.035808,169.999718 C474.011832,174.837378 473.492356,179.854802 471.630235,181.584535 C467.646256,185.287682 452.48955,186.002745 450.367691,185.036012 C449.696369,184.736404 449.332735,182.01597 449.148921,178.448645 C449.057014,176.535153 449.005066,174.401949 448.993078,172.244776 L449.005066,172.240781 C448.957115,165.709341 449.212856,159.145943 449.212856,159.145943 L472.593264,153.95275 Z" id="Fill-54" fill="#D7DADF"></path>
                    <path d="M473.685362,161.782488 C473.857188,163.827807 474.060983,166.879807 474.037007,169.999718 C468.051047,172.764095 455.923285,177.993242 449.146124,178.448645 C449.058213,176.535153 449.002269,174.401949 448.990281,172.244776 L449.002269,172.240781 C449.685579,172.100964 471.024047,167.726697 473.685362,161.782488" id="Fill-56" fill="#C0C2C4"></path>
                    <g id="Group-60" transform="translate(449.165323, 0.795812)">
                        <mask id="mask-8" fill="white">
                            <use xlink:href="#path-7"></use>
                        </mask>
                        <g id="Clip-59"></g>
                        <path d="M87.7814032,0.223774869 L7.89401613,0.223774869 C3.53841129,0.223774869 0.00197983871,3.7431623 0.00197983871,8.0974555 L0.00197983871,65.1466859 C0.00197983871,69.5009791 3.53841129,73.0203665 7.89401613,73.0203665 L12.1936774,73.0203665 L12.1936774,92.7624921 L31.937754,73.0203665 L87.7814032,73.0203665 C92.1370081,73.0203665 95.6654476,69.5009791 95.6654476,65.1466859 L95.6654476,8.0974555 C95.6654476,3.7431623 92.1370081,0.223774869 87.7814032,0.223774869" id="Fill-58" fill="url(#linearGradient-9)" mask="url(#mask-8)"></path>
                    </g>
                    <polygon id="Fill-61" fill="#FFFFFF" points="460.268101 18.7763141 533.733968 18.7763141 533.733968 12.2568586 460.268101 12.2568586"></polygon>
                    <polygon id="Fill-63" fill="#FFFFFF" points="460.268101 33.377178 533.733968 33.377178 533.733968 26.8577225 460.268101 26.8577225"></polygon>
                    <polygon id="Fill-64" fill="#FFFFFF" points="460.268101 47.9780419 533.733968 47.9780419 533.733968 41.4585864 460.268101 41.4585864"></polygon>
                    <polygon id="Fill-65" fill="#FFFFFF" points="460.268101 62.5789058 499.768242 62.5789058 499.768242 56.0594503 460.268101 56.0594503"></polygon>
                    <path d="M97.7682927,450.396226 L6.48440565,450.396226 C2.93598629,450.396226 0.0628854839,447.523991 0.0628854839,443.980635 C0.0628854839,440.433284 2.93598629,437.561048 6.48440565,437.561048 L97.7682927,437.561048 C101.316712,437.561048 104.189813,440.433284 104.189813,443.980635 C104.189813,447.523991 101.316712,450.396226 97.7682927,450.396226" id="Fill-66" fill="#353537"></path>
                    <polygon id="Fill-67" fill="#EBE0BE" points="45.8263065 523.127304 58.2297903 523.127304 58.2297903 460.473419 45.8263065 460.473419"></polygon>
                    <polygon id="Fill-68" fill="#F4EED8" points="42.6335282 474.798644 61.618371 474.798644 61.618371 450.398623 42.6335282 450.398623"></polygon>
                    <polygon id="Fill-69" fill="#353537" points="14.6937218 528.076817 89.5621734 528.076817 89.5621734 520.211126 14.6937218 520.211126"></polygon>
                    <path d="M25.6650508,534.836358 C25.6650508,538.567468 22.6361073,541.591504 18.9038734,541.591504 C15.1716395,541.591504 12.142696,538.567468 12.142696,534.836358 C12.142696,531.101253 15.1716395,528.077216 18.9038734,528.077216 C22.6361073,528.077216 25.6650508,531.101253 25.6650508,534.836358" id="Fill-70" fill="#EBE0BE"></path>
                    <path d="M92.1100024,534.836358 C92.1100024,538.567468 89.0810589,541.591504 85.348825,541.591504 C81.6165911,541.591504 78.5876476,538.567468 78.5876476,534.836358 C78.5876476,531.101253 81.6165911,528.077216 85.348825,528.077216 C89.0810589,528.077216 92.1100024,531.101253 92.1100024,534.836358" id="Fill-71" fill="#EBE0BE"></path>
                </g>
                <g id="Group-75" transform="translate(341.000000, 825.000000)">
                    <mask id="mask-11" fill="white">
                        <use xlink:href="#path-10"></use>
                    </mask>
                    <g id="Clip-74"></g>
                    <path d="M89.516,0.408 C73.104,0.308 52.524,0.18 50.376,0.18 C50.376,0.18 1.516,4.704 0.612,23.704 C-0.296,42.708 25.496,141.724 25.496,141.724 L46.76,141.724 C46.76,141.724 48.572,42.708 43.14,39.092 C43.14,39.092 69.368,38.66 89.516,36.912 C109.668,38.66 135.896,39.092 135.896,39.092 C130.468,42.708 132.272,141.724 132.272,141.724 L153.54,141.724 C153.54,141.724 179.332,42.708 178.424,23.704 C177.52,4.704 128.656,0.18 128.656,0.18 C126.508,0.18 105.928,0.308 89.516,0.408" id="Fill-73" fill="url(#linearGradient-12)" mask="url(#mask-11)"></path>
                </g>
                <g id="Group-106" transform="translate(48.000000, 613.000000)">
                    <path d="M336.889215,353.810307 L336.413695,359.558773 L336.277832,361.268532 L335.790324,367.368537 L302.34807,367.368537 C300.465969,367.368537 299.570873,365.011626 301.017413,363.789228 C301.496929,363.393747 302.008413,363.00226 302.551865,362.610773 C304.318082,361.364406 306.403977,360.197935 308.545816,359.155302 C315.287014,355.911553 322.62361,353.810307 322.62361,353.810307 L336.889215,353.810307 Z" id="Fill-76" fill="#353537"></path>
                    <path d="M336.276633,361.269331 L335.789125,367.365341 L302.350867,367.365341 C300.464771,367.365341 299.569674,365.00843 301.02021,363.790027 C301.49573,363.394546 302.01121,363.003059 302.554662,362.611572 C309.983166,363.015043 321.56348,363.07097 336.276633,361.269331" id="Fill-78" fill="#FFFFFF"></path>
                    <path d="M429.20606,353.810307 L429.677584,359.558773 L429.813447,361.268532 L430.304951,367.368537 L463.743209,367.368537 C465.62531,367.368537 466.524403,365.011626 465.073867,363.789228 C464.598346,363.393747 464.082867,363.00226 463.539415,362.610773 C461.773197,361.364406 459.687302,360.197935 457.545463,359.155302 C450.804266,355.911553 443.467669,353.810307 443.467669,353.810307 L429.20606,353.810307 Z" id="Fill-80" fill="#353537"></path>
                    <path d="M429.815046,361.269331 L430.302554,367.365341 L463.740812,367.365341 C465.626908,367.365341 466.522005,365.00843 465.071469,363.790027 C464.595949,363.394546 464.080469,363.003059 463.537017,362.611572 C456.108513,363.015043 444.528199,363.07097 429.815046,361.269331" id="Fill-82" fill="#FFFFFF"></path>
                    <path d="M429.815046,212.651712 L429.055812,213.007246 C397.407747,228.215314 360.684804,228.810534 328.561219,214.661078 C328.561219,214.661078 330.978779,178.979842 338.243449,136.399649 C341.444219,117.640235 345.608017,97.5505649 350.906671,78.559455 L350.950626,78.5434759 C350.974602,78.5314916 350.98659,78.5314916 351.014562,78.5155126 C352.169396,78.0720937 353.336219,77.6486487 354.515029,77.253167 C369.583824,72.2557168 385.851408,72.2437325 400.908215,77.1892508 C402.178933,77.608701 403.437662,78.0720937 404.704384,78.559455 C422.082848,140.602141 429.815046,212.651712 429.815046,212.651712" id="Fill-84" fill="#A163BD"></path>
                    <path d="M350.949427,78.5422775 L350.905472,78.5582565 C345.606819,97.5493665 341.44302,117.639037 338.24225,136.39845 C330.25431,142.338665 320.232423,150.81156 318.594077,157.183209 C317.686992,160.682623 321.427218,163.606791 326.90569,165.979681 L321.886754,183.616565 L310.55419,183.616565 C310.55419,183.616565 286.766194,176.362073 288.124823,156.735796 C289.479456,137.105524 326.741855,94.8249372 332.056492,87.3707068 C334.677847,83.7075079 343.085363,80.6714869 350.949427,78.5422775" id="Fill-86" fill="#7E34A5"></path>
                    <path d="M357.665051,183.615367 L357.665051,173.464671 C357.665051,173.464671 338.432458,170.963948 326.908087,165.974487 L321.889152,183.615367 L357.665051,183.615367 Z" id="Fill-88" fill="#F4EED8"></path>
                    <path d="M404.28201,78.5422775 L404.701587,78.5582565 C410.004236,97.5493665 413.788418,117.639037 416.989188,136.39845 C424.977127,142.338665 434.999015,150.81156 436.637361,157.183209 C437.544446,160.682623 433.80422,163.606791 428.325748,165.979681 L433.344684,183.616565 L444.677248,183.616565 C444.677248,183.616565 468.465244,176.362073 467.106615,156.735796 C465.751982,137.105524 428.489583,94.8249372 423.174946,87.3707068 C420.553591,83.7075079 412.146075,80.6714869 404.28201,78.5422775" id="Fill-90" fill="#7E34A5"></path>
                    <path d="M397.566387,183.615367 L397.566387,173.464671 C397.566387,173.464671 416.802976,170.963948 428.323351,165.974487 L433.342286,183.615367 L397.566387,183.615367 Z" id="Fill-92" fill="#F4EED8"></path>
                    <polygon id="Fill-94" fill="#353537" points="334.96156 183.616565 429.20646 183.616565 429.20646 121.853513 334.96156 121.853513"></polygon>
                    <path d="M400.906617,77.1884518 C399.859673,83.6240173 395.711858,96.1795618 379.192528,96.1795618 C362.717153,96.1795618 356.57535,83.7079073 354.517427,77.2563628 C355.951979,76.7809859 357.402516,76.3495513 358.869036,75.9660539 C371.412379,72.6304257 384.619052,72.6743681 397.138419,76.065923 C398.397149,76.4014832 399.659875,76.7809859 400.906617,77.1884518" id="Fill-96" fill="#C0C2C4"></path>
                    <path d="M397.13722,76.0651241 C392.673724,80.8748204 385.013454,87.4901503 376.589954,87.7058675 C366.787845,87.9495482 361.145539,80.1038309 358.867837,75.965255 C371.415176,72.6336215 384.617853,72.6735691 397.13722,76.0651241" id="Fill-97" fill="#D7DADF"></path>
                    <path d="M401.417701,54.0391916 C401.417701,70.665401 390.744471,84.1477309 377.573761,84.1477309 C364.407048,84.1477309 353.729822,70.665401 353.729822,54.0391916 C353.729822,37.4089874 364.407048,23.9306524 377.573761,23.9306524 C390.744471,23.9306524 401.417701,37.4089874 401.417701,54.0391916" id="Fill-98" fill="#D7DADF"></path>
                    <path d="M361.700179,59.6917832 C361.700179,63.6146419 358.511397,66.8024639 354.587356,66.8024639 C350.655324,66.8024639 347.470538,63.6146419 347.470538,59.6917832 C347.470538,55.7649298 350.655324,52.5771079 354.587356,52.5771079 C358.511397,52.5771079 361.700179,55.7649298 361.700179,59.6917832" id="Fill-99" fill="#D7DADF"></path>
                    <path d="M408.531722,59.6917832 C408.531722,63.6146419 405.346936,66.8024639 401.4189,66.8024639 C397.486867,66.8024639 394.302081,63.6146419 394.302081,59.6917832 C394.302081,55.7649298 397.486867,52.5771079 401.4189,52.5771079 C405.346936,52.5771079 408.531722,55.7649298 408.531722,59.6917832" id="Fill-100" fill="#D7DADF"></path>
                    <path d="M404.047847,53.0812471 C403.748149,55.3422838 399.89204,55.5100639 400.443484,57.7271581 C399.808125,55.881577 398.65329,53.2450325 397.222734,51.9187707 C397.190766,46.6416869 393.142851,41.6602157 387.98006,40.5496712 C384.235839,39.7427288 380.347762,40.8093309 376.523621,40.6135874 C372.032153,40.3858859 367.660565,38.3365717 364.611641,35.0329016 C359.304996,41.5883099 355.27706,49.8215194 355.12921,58.254467 C354.441903,56.0972942 352.81954,54.6392052 350.769609,53.6884513 C350.769609,53.6884513 344.915516,34.2778911 352.715645,30.3230743 C352.715645,30.3230743 349.438952,20.7236555 362.321952,18.9140272 C375.200956,17.1083937 397.690262,23.0925508 401.4185,14.6236503 C401.4185,14.6236503 406.617254,28.4015927 401.4185,31.6812942 C401.4185,31.6812942 406.904964,31.5534618 404.047847,53.0812471" id="Fill-101" fill="#6332B9"></path>
                    <path d="M82.7200927,48.3650283 C82.7280847,45.5487194 82.5762379,42.6644995 82.3764395,39.7203581 C81.7930282,31.0557141 84.1146855,23.7972272 88.3224395,17.4575361 C88.1705927,17.9209288 88.0267379,18.3883162 87.890875,18.8557037 C85.1376532,28.4231644 85.6970887,39.1171487 82.7200927,48.3650283 M139.135165,51.5848084 C139.56673,42.1731435 145.312931,33.2648188 144.06619,23.9250597 C141.824452,7.15104398 117.616879,-3.43508168 102.663968,1.3586356 C97.301379,3.08037906 93.4093065,7.0471801 90.7759637,11.8089393 C86.4203589,16.6426042 83.0277823,22.3351435 81.3974274,28.6308921 C79.8270121,34.6909497 80.7980323,40.7629916 81.0537742,46.9149288 C81.1416855,49.0401435 81.0417863,51.0854628 80.7860444,53.0708607 C79.839,54.9244314 78.7001492,56.6981068 77.2496129,58.3519393 C74.6482379,61.3160545 71.2476694,63.4692325 68.4864556,66.2855414 C64.9819919,69.868845 62.624371,74.4148869 60.6663468,79.0328346 C57.8651734,85.6281906 55.7592984,93.0704366 57.9970403,99.8735204 C60.2068105,106.616683 66.2646976,111.374447 72.5543508,114.662138 C84.3944032,120.858018 98.1884839,123.262866 111.427125,121.429269 C119.618859,120.294756 127.86254,117.410536 133.724625,111.57818 C139.474823,105.857677 142.427843,97.7682796 143.191073,89.6948607 C143.954302,81.6254366 142.695573,73.5000859 141.021262,65.562489 C140.046246,60.9485361 138.919383,56.2946356 139.135165,51.5848084" id="Fill-102" fill="#FF57A4"></path>
                    <path d="M42.9438302,272.565188 C23.3316206,270.344099 10.3207496,262.466424 4.27884637,249.135895 C-13.1915246,210.606392 35.0877577,140.378434 37.149677,137.410324 L42.720056,141.277256 C42.236544,141.972345 -5.43535121,211.305476 10.4566125,246.33956 C15.4475762,257.341141 26.6322899,263.896549 43.7070601,265.830015 L42.9438302,272.565188 Z" id="Fill-103" fill="#F4EED8"></path>
                    <path d="M89.8824653,181.489353 L35.8010379,181.489353 C26.2386871,181.489353 18.4865097,173.743505 18.4865097,164.180039 L18.4865097,127.424212 C18.4865097,117.864741 26.2386871,110.114898 35.8010379,110.114898 L89.8824653,110.114898 L89.8824653,181.489353 Z" id="Fill-104" fill="#353537"></path>
                    <path d="M116.191917,276.173659 L24.9080298,276.173659 C21.3596105,276.173659 18.4865097,273.301423 18.4865097,269.758067 C18.4865097,266.210716 21.3596105,263.338481 24.9080298,263.338481 L116.191917,263.338481 C119.73634,263.338481 122.609441,266.210716 122.609441,269.758067 C122.609441,273.301423 119.73634,276.173659 116.191917,276.173659" id="Fill-105" fill="#353537"></path>
                </g>
                <g id="Group-109" transform="translate(116.000000, 831.000000)">
                    <mask id="mask-14" fill="white">
                        <use xlink:href="#path-13"></use>
                    </mask>
                    <g id="Clip-108"></g>
                    <path d="M40.192,0.44 L0.828,20.668 L3.572,44.552 C3.572,44.552 51.052,46.724 65.984,44.552 L51.732,135.772 L70.268,135.772 C70.268,135.772 110.1,26.092 96.524,12.52 C85.396,1.392 54.648,0.392 43.932,0.392 C41.58,0.392 40.192,0.44 40.192,0.44" id="Fill-107" fill="url(#linearGradient-15)" mask="url(#mask-14)"></path>
                </g>
                <g id="Group-120" transform="translate(167.000000, 673.000000)">
                    <path d="M3.7836,293.7248 L4.2516,299.4808 L4.8756,307.3088 L38.3516,307.3088 C40.2476,307.3088 41.1316,304.9408 39.6836,303.7168 C37.6676,302.0208 34.9596,300.4528 32.1476,299.0848 C25.4116,295.8328 18.0636,293.7248 18.0636,293.7248 L3.7836,293.7248 Z" id="Fill-110" fill="#353537"></path>
                    <path d="M3.7836,293.7248 L4.2516,299.4808 C6.4236,300.6528 8.7956,301.4608 11.2156,301.9728 C15.0756,302.7888 19.0556,302.8728 23.0156,302.8328 C26.5476,302.8088 30.1836,301.9128 32.1476,299.0848 C25.4116,295.8328 18.0636,293.7248 18.0636,293.7248 L3.7836,293.7248 Z" id="Fill-112" fill="#D7DADF"></path>
                    <path d="M11.8616,0.6508 C11.8616,0.6508 21.9976,4.9188 26.5216,24.8308 C31.0456,44.7348 34.6656,92.6988 34.6656,92.6988 L68.1176,103.6708 L68.5976,118.9388 L0.7296,122.2868 L2.5416,63.2868 L11.8616,0.6508 Z" id="Fill-114" fill="#7E34A5"></path>
                    <path d="M98.2972,268.4984 L100.4372,273.8584 L103.3372,281.1544 L135.3292,271.3024 C137.1412,270.7424 137.2892,268.2224 135.5492,267.4784 C133.1212,266.4504 130.0692,265.7504 126.9812,265.2664 C119.5852,264.1464 111.9412,264.2944 111.9412,264.2944 L98.2972,268.4984 Z" id="Fill-116" fill="#353537"></path>
                    <path d="M98.2972,268.4984 L100.4372,273.8584 C102.8572,274.3424 105.3612,274.4144 107.8292,274.1904 C111.7532,273.8344 115.5812,272.7424 119.3572,271.5464 C122.7252,270.4784 125.9332,268.5544 126.9812,265.2664 C119.5852,264.1464 111.9412,264.2944 111.9412,264.2944 L98.2972,268.4984 Z" id="Fill-118" fill="#D7DADF"></path>
                </g>
                <g id="Group-123" transform="translate(90.000000, 813.000000)">
                    <mask id="mask-17" fill="white">
                        <use xlink:href="#path-16"></use>
                    </mask>
                    <g id="Clip-122"></g>
                    <path d="M88.864,1.68 L2.896,1.68 C2.896,1.68 -8.916,51.788 20.04,61.06 C49,70.328 130.952,34.744 130.952,34.744 L172.112,129.408 L192.024,123.98 C192.024,123.98 168.492,3.36 153.108,1.68 C147.98,1.124 139.132,0.936 129.616,0.936 C110.58,0.936 88.864,1.68 88.864,1.68" id="Fill-121" fill="url(#linearGradient-18)" mask="url(#mask-17)"></path>
                </g>
                <g id="Group-167" transform="translate(78.000000, 411.000000)">
                    <path d="M100.681296,403.954531 L93.1688766,405.312751 L71.7305097,409.203652 L8.24257419,420.696589 C8.24257419,420.696589 34.6838927,348.067777 36.3781831,338.548254 C38.0724734,329.032725 38.3042395,302.882997 36.4980621,290.127715 C34.6838927,277.372432 54.7516427,263.107128 54.7516427,263.107128 L100.681296,263.107128 C100.801175,263.24295 100.92505,263.390757 101.044929,263.546552 C124.832925,291.414029 100.681296,403.954531 100.681296,403.954531" id="Fill-124" fill="#A163BD"></path>
                    <path d="M93.1692762,405.312352 L71.7309093,409.203252 C85.6808327,315.56997 63.459256,263.106729 63.459256,263.106729 L100.681696,263.106729 C100.801575,263.242551 100.92545,263.394352 101.045329,263.546153 C114.767482,281.071184 96.6377762,386.021635 93.1692762,405.312352" id="Fill-126" fill="#A163BD"></path>
                    <path d="M63.459256,263.115917 C63.459256,263.115917 76.7898044,283.633027 91.2592036,279.110953 C105.720611,274.592875 100.681696,263.115917 100.681696,263.115917 L63.459256,263.115917 Z" id="Fill-128" fill="#D7DADF"></path>
                    <path d="M172.275052,377.91466 C168.914443,374.950545 162.165254,366.657414 156.882584,366.002272 C154.325165,365.682691 138.125512,372.166194 138.125512,372.166194 C138.125512,372.166194 110.253637,370.931812 84.443681,369.138162 L83.1130238,384.693775 C101.270701,384.426126 122.001782,383.966728 139.216411,383.327565 C152.0115,386.838963 165.158233,383.806937 171.431903,381.849503 C173.166153,381.326188 173.617697,379.117084 172.275052,377.91466" id="Fill-130" fill="#F4EED8"></path>
                    <path d="M54.7568375,263.115917 C54.7568375,263.115917 31.7040996,270.542184 26.7331157,297.65465 C21.7621319,324.767116 24.471398,388.02421 32.6111843,392.546283 C40.7469746,397.064362 89.5617165,390.289241 89.5617165,390.289241 L89.5617165,368.146262 L56.8986762,366.340629 C56.8986762,366.340629 75.5478577,279.634268 54.7568375,263.115917" id="Fill-132" fill="#7E34A5"></path>
                    <polygon id="Fill-134" fill="#EBE0BE" points="34.2467339 550.907932 46.6502177 550.907932 46.6502177 488.250052 34.2467339 488.250052"></polygon>
                    <polygon id="Fill-136" fill="#F4EED8" points="31.0579516 502.575277 50.0427944 502.575277 50.0427944 478.175257 31.0579516 478.175257"></polygon>
                    <polygon id="Fill-137" fill="#353537" points="3.11414919 555.857445 77.9865968 555.857445 77.9865968 547.987759 3.11414919 547.987759"></polygon>
                    <path d="M14.0870766,562.61379 C14.0870766,566.348895 11.062129,569.368937 7.32589919,569.368937 C3.59366532,569.368937 0.568717742,566.348895 0.568717742,562.61379 C0.568717742,558.88268 3.59366532,555.858643 7.32589919,555.858643 C11.062129,555.858643 14.0870766,558.88268 14.0870766,562.61379" id="Fill-138" fill="#EBE0BE"></path>
                    <path d="M80.5316286,562.61379 C80.5316286,566.348895 77.506681,569.368937 73.7704512,569.368937 C70.0382173,569.368937 67.0132698,566.348895 67.0132698,562.61379 C67.0132698,558.88268 70.0382173,555.858643 73.7704512,555.858643 C77.506681,555.858643 80.5316286,558.88268 80.5316286,562.61379" id="Fill-139" fill="#EBE0BE"></path>
                    <polygon id="Fill-140" fill="#9EB56D" points="95.8645565 395.515592 548.096218 395.515592 548.096218 385.612571 95.8645565 385.612571"></polygon>
                    <polygon id="Fill-141" fill="#AFC97E" points="108.407899 406.629026 535.548879 406.629026 535.548879 395.519586 108.407899 395.519586"></polygon>
                    <polygon id="Fill-142" fill="#353537" points="127.517416 578.113076 145.583186 406.62583 132.020872 406.62583 119.117892 578.113076"></polygon>
                    <polygon id="Fill-143" fill="#353537" points="524.84528 578.113076 511.938304 406.62583 498.37599 406.62583 516.44176 578.113076"></polygon>
                    <polygon id="Fill-144" fill="#353537" points="117.694528 385.616565 170.888851 385.616565 170.888851 378.941314 117.694528 378.941314"></polygon>
                    <polygon id="Fill-145" fill="#353537" points="237.951179 385.615367 152.653252 385.615367 166.223558 323.852315 251.521486 323.852315"></polygon>
                    <path d="M107.525989,228.483307 C107.525989,228.483307 112.712755,261.400165 94.7668641,260.669124 C76.816977,259.946071 70.4314206,246.891181 71.861977,239.165307 C73.2885375,231.439432 74.6631504,216.05959 90.1035698,214.513616 C105.539993,212.967642 107.525989,228.483307 107.525989,228.483307" id="Fill-146" fill="#D7DADF"></path>
                    <path d="M76.4849121,246.588777 C75.8895129,249.812552 72.7926379,251.937767 69.5718879,251.342547 C66.3471419,250.751322 64.2172911,247.65538 64.8126903,244.431605 C65.4080895,241.20783 68.5049645,239.082615 71.7297105,239.677835 C74.9504605,240.26906 77.0803113,243.365003 76.4849121,246.588777" id="Fill-147" fill="#D7DADF"></path>
                    <path d="M67.5467315,240.46001 C67.5467315,240.46001 72.1221145,238.68234 75.3508565,241.90212 C75.3508565,241.90212 97.7322718,236.688952 97.5084976,224.676696 C97.5084976,224.676696 102.075889,222.587434 106.37555,224.361109 C106.37555,224.361109 102.423538,204.50713 76.9732194,211.29024 C51.5308927,218.069355 64.8134895,244.430806 64.8134895,244.430806 C64.8134895,244.430806 64.8574452,242.225696 67.5467315,240.46001" id="Fill-148" fill="#FF57A4"></path>
                    <path d="M73.0236048,244.77076 L72.2044315,249.196959 C72.2044315,249.196959 72.0925444,250.003902 71.9646734,251.3022 C71.7848548,253.007964 71.5610806,255.556624 71.521121,258.165205 C71.4531895,262.215896 71.7968427,266.422383 73.3272984,267.900446 C76.592004,271.076284 89.2552258,271.943148 91.0494153,271.176153 C91.6128468,270.932472 91.9724839,268.671436 92.1882661,265.687347 C92.3001532,264.089441 92.3840685,262.303781 92.4320202,260.498148 L92.4200323,260.498148 C92.579871,255.03331 92.4839677,249.536514 92.4839677,249.536514 L73.0236048,244.77076 Z" id="Fill-149" fill="#D7DADF"></path>
                    <path d="M71.9642738,251.301401 C71.7844552,253.007165 71.560681,255.555825 71.5207214,258.164406 C76.4797173,260.589228 86.5295762,265.183207 92.1918625,265.686548 C92.2997536,264.092637 92.383669,262.302982 92.4316206,260.497349 L92.4196327,260.497349 C91.8522052,260.365521 74.0861327,256.318825 71.9642738,251.301401" id="Fill-150" fill="#C0C2C4"></path>
                    <path d="M191.220734,106.448048 L111.333347,106.448048 C106.981738,106.448048 103.445307,109.967436 103.445307,114.321729 L103.445307,171.370959 C103.445307,175.725252 106.981738,179.24464 111.333347,179.24464 L115.637004,179.24464 L115.637004,198.986765 L135.381081,179.24464 L191.220734,179.24464 C195.576339,179.24464 199.112771,175.725252 199.112771,171.370959 L199.112771,114.321729 C199.112771,109.967436 195.576339,106.448048 191.220734,106.448048" id="Fill-151" fill="#6332B9"></path>
                    <polygon id="Fill-152" fill="#FFFFFF" points="188.005179 123.123393 167.186187 128.999692 172.992328 134.652283 162.187231 145.753734 140.561054 129.922482 115.73011 156.104168 119.666139 159.835278 141.208401 137.117053 162.786627 152.912351 176.884401 138.435325 182.690542 144.087917"></polygon>
                    <path d="M297.465125,39.8577225 C297.465125,61.6092147 279.826923,79.2421047 258.072875,79.2421047 C236.310835,79.2421047 218.672633,61.6092147 218.672633,39.8577225 C218.672633,18.1062304 236.310835,0.473340314 258.072875,0.473340314 C279.826923,0.473340314 297.465125,18.1062304 297.465125,39.8577225" id="Fill-153" fill="#FFFFFF"></path>
                    <path d="M269.056192,10.6048618 C266.702567,9.71802408 264.241051,9.12280419 261.739575,8.83118639 L262.055256,6.13871518 C264.77651,6.45829634 267.453809,7.10544817 270.011228,8.06419162 L269.056192,10.6048618 Z M246.902547,10.668778 L245.931527,8.14009215 C248.488946,7.16137487 251.158252,6.49824398 253.87551,6.16268377 L254.207176,8.85116021 C251.709696,9.16275183 249.252176,9.76995602 246.902547,10.668778 Z M281.387748,19.0577832 C279.709442,17.180244 277.807361,15.5064377 275.73745,14.0843016 L277.271902,11.8472335 C279.521631,13.3932073 281.587547,15.2108251 283.413704,17.2521497 L281.387748,19.0577832 Z M234.626934,19.1976 L232.592986,17.4039508 C234.40316,15.3546366 236.461083,13.5210398 238.702821,11.9630817 L240.253256,14.1881654 C238.183345,15.6262806 236.293252,17.3120712 234.626934,19.1976 Z M288.388684,32.2604796 C287.781297,29.8236733 286.874212,27.4587728 285.691406,25.2376838 L288.088986,23.9633539 C289.371692,26.3841812 290.358696,28.9528147 291.018031,31.6053382 L288.388684,32.2604796 Z M227.701922,32.4442387 L225.068579,31.8050764 C225.71193,29.1525529 226.68295,26.5719351 227.953668,24.1431183 L230.355244,25.4014691 C229.188422,27.6345424 228.297321,30.0034377 227.701922,32.4442387 Z M291.053994,47.9758827 L288.420652,47.3327257 C289.016051,44.8999141 289.319744,42.3872073 289.319744,39.8585215 L292.033006,39.7266942 L292.033006,39.8585215 C292.033006,42.6029246 291.701341,45.3353435 291.053994,47.9758827 Z M225.100547,48.0437937 C224.445208,45.3992597 224.113543,42.6708356 224.105551,39.9264325 L226.818813,39.9224377 C226.826805,42.4471288 227.130498,44.9598356 227.73389,47.3926471 L225.100547,48.0437937 Z M283.497619,62.3650241 L281.467668,60.5633853 C283.141978,58.6778565 284.584523,56.5965843 285.751345,54.3715005 L288.152922,55.6298513 C286.882204,58.0506785 285.315785,60.3117152 283.497619,62.3650241 Z M232.676902,62.4089665 C230.858736,60.3636471 229.292317,58.1026105 228.013607,55.6897728 L230.415184,54.4234325 C231.589998,56.6445215 233.028547,58.7257937 234.706853,60.6073277 L232.676902,62.4089665 Z M270.139099,71.6049141 L269.176071,69.0682387 C271.521704,68.1774063 273.767438,66.994956 275.833353,65.5608356 L277.379793,67.7899141 C275.130063,69.351867 272.692523,70.6341864 270.139099,71.6049141 Z M246.063394,71.624888 C243.505974,70.6621497 241.068434,69.3838251 238.814708,67.8298618 L240.34916,65.5967885 C242.427063,67.0269141 244.672797,68.2013749 247.022426,69.0922073 L246.063394,71.624888 Z M258.071277,73.8100241 C256.716644,73.8100241 255.350023,73.7301288 254.015369,73.5703382 L254.335047,70.877867 C256.820539,71.1774743 259.393942,71.1734796 261.867446,70.8698775 L262.195115,73.5623487 C260.836486,73.726134 259.449885,73.8100241 258.071277,73.8100241 Z" id="Fill-154" fill="#5202B5"></path>
                    <polygon id="Fill-155" fill="#253C78" points="266.687782 57.8537366 255.395177 46.5645325 255.395177 19.0565848 260.817705 19.0565848 260.817705 44.3194749 270.519915 54.0187628"></polygon>
                    <polygon id="Fill-156" fill="#F4EED8" points="318.920275 165.519029 318.920275 183.595338 309.557723 192.80327 291.627815 192.80327 291.627815 165.519029"></polygon>
                    <polygon id="Fill-157" fill="#EBE0BE" points="318.920275 183.596936 309.557723 192.804868 309.557723 183.596936"></polygon>
                    <polygon id="Fill-158" fill="#FFFFFF" points="252.462536 166.355932 279.754996 166.355932 279.754996 139.071691 252.462536 139.071691"></polygon>
                    <path d="M295.38922,255.678464 L296.508091,259.621297 L297.630958,255.678464 C298.57001,252.35482 300.807752,249.550496 303.840692,247.892669 C300.807752,246.234841 298.57001,243.430517 297.630958,240.106873 L296.508091,236.16404 L295.38922,240.106873 C294.450167,243.430517 292.208429,246.234841 289.17549,247.892669 C292.208429,249.550496 294.450167,252.35482 295.38922,255.678464" id="Fill-159" fill="#FFFFFF"></path>
                    <path d="M285.028475,271.667109 L285.891604,274.715115 L286.758729,271.667109 C287.485995,269.094481 289.216249,266.929319 291.561882,265.643005 C289.216249,264.360685 287.485995,262.191528 286.758729,259.6189 L285.891604,256.57489 L285.028475,259.6189 C284.297213,262.191528 282.566958,264.360685 280.225321,265.643005 C282.566958,266.929319 284.297213,269.094481 285.028475,271.667109" id="Fill-160" fill="#FFFFFF"></path>
                    <path d="M826.802181,152.922338 L827.917056,156.865171 L829.039923,152.922338 C829.982971,149.598694 832.216717,146.79437 835.249656,145.136542 C832.216717,143.478715 829.982971,140.674391 829.039923,137.350747 L827.917056,133.403919 L826.802181,137.350747 C825.859132,140.674391 823.617394,143.478715 820.588451,145.136542 C823.617394,146.79437 825.859132,149.598694 826.802181,152.922338" id="Fill-161" fill="#FFFFFF"></path>
                    <path d="M816.43704,168.909385 L817.304165,171.957391 L818.167294,168.909385 C818.89456,166.336757 820.62881,164.1676 822.974443,162.889275 C820.62881,161.602961 818.89456,159.433804 818.167294,156.865171 L817.304165,153.817165 L816.43704,156.865171 C815.705778,159.433804 813.97952,161.602961 811.633887,162.889275 C813.97952,164.1676 815.705778,166.336757 816.43704,168.909385" id="Fill-162" fill="#FFFFFF"></path>
                    <path d="M676.508639,299.365208 L675.070091,304.434564 L673.631542,299.365208 C672.420764,295.09081 669.539671,291.479543 665.639607,289.350334 C669.539671,287.217129 672.420764,283.609857 673.631542,279.331464 L675.070091,274.262108 L676.508639,279.331464 C677.723413,283.609857 680.60051,287.217129 684.500575,289.350334 C680.60051,291.479543 677.723413,295.09081 676.508639,299.365208" id="Fill-163" fill="#FFFFFF"></path>
                    <path d="M689.838788,319.931853 L688.727909,323.854712 L687.613034,319.931853 C686.677977,316.624188 684.448227,313.835842 681.431272,312.186005 C684.448227,310.536167 686.677977,307.743827 687.613034,304.436162 L688.727909,300.517298 L689.838788,304.436162 C690.773844,307.743827 693.003594,310.536167 696.02055,312.186005 C693.003594,313.835842 690.773844,316.624188 689.838788,319.931853" id="Fill-164" fill="#FFFFFF"></path>
                    <path d="M138.344491,258.34457 L137.22562,262.287403 L136.106749,258.34457 C135.167696,255.020926 132.925958,252.216602 129.897015,250.558774 C132.925958,248.900947 135.167696,246.096623 136.106749,242.772979 L137.22562,238.830146 L138.344491,242.772979 C139.287539,246.096623 141.525281,248.900947 144.558221,250.558774 C141.525281,252.216602 139.287539,255.020926 138.344491,258.34457" id="Fill-165" fill="#FF57A4"></path>
                    <path d="M148.708832,274.331617 L147.841707,277.383617 L146.974582,274.331617 C146.251312,271.758989 144.517062,269.589832 142.171429,268.307513 C144.517062,267.029188 146.251312,264.860031 146.974582,262.287403 L147.841707,259.239397 L148.708832,262.287403 C149.440094,264.860031 151.166352,267.029188 153.511985,268.307513 C151.166352,269.589832 149.440094,271.758989 148.708832,274.331617" id="Fill-166" fill="#FF57A4"></path>
                </g>
                <g id="Group-170" transform="translate(827.000000, 845.000000)">
                    <mask id="mask-20" fill="white">
                        <use xlink:href="#path-19"></use>
                    </mask>
                    <g id="Clip-169"></g>
                    <path d="M67.54,80.152 C73.204,111.92 90.42,143.872 91.696,176.068 C79.708,178.6 66.484,146.476 61.892,138.26 C53.876,123.912 42.668,110.556 32.436,97.764 C23.288,86.332 12.932,75.04 0.26,67.564 C-0.3,76.824 7.532,91.04 11.076,99.536 C16.684,112.972 24.348,126.076 31.704,138.636 C40.436,153.528 49.604,167.756 61.7,180.144 C62.856,181.324 64.328,182.616 65.94,184 L157.436,184 L157.436,118.82 C155.756,122.424 154.272,125.856 152.968,128.732 C149.004,137.488 143.984,150.12 140.92,162.512 C141.5,151.46 141.796,140.352 142.516,129.576 C143.692,112.004 140.884,94.432 138.812,77.032 C137.436,65.48 138.824,46.712 132.556,36.828 C129.224,40.964 128.452,47.38 127.088,52.744 C124.008,64.844 121.148,76.54 118.648,88.808 C112.936,116.844 114.904,146.932 119.252,175.172 C114.94,155.92 106.476,137.744 102.42,118.3 C97.72,95.768 91.328,73.496 84.96,51.372 C80.616,36.272 76.748,13.164 66.96,0.576 C59.796,25.96 62.992,54.632 67.54,80.152" id="Fill-168" fill="url(#linearGradient-21)" mask="url(#mask-20)"></path>
                </g>
            </g>
        </g>
    </g>
</svg>