<?xml version="1.0" encoding="UTF-8"?>
<svg width="100px" height="101px" viewBox="0 0 100 101" version="1.1" xmlns="http://www.w3.org/2000/svg" xmlns:xlink="http://www.w3.org/1999/xlink">
    <!-- Generator: Sketch 51.3 (57544) - http://www.bohemiancoding.com/sketch -->
    <title>Trust</title>
    <desc>Created with Sketch.</desc>
    <defs></defs>
    <g id="Page-1" stroke="none" stroke-width="1" fill="none" fill-rule="evenodd">
        <g id="Why-Arbisoft-Copy" transform="translate(-173.000000, -2020.000000)">
            <g id="Trust" transform="translate(173.000000, 2020.000000)">
                <g id="Group-8-Copy">
                    <path d="M5.73197988,19.0064508 C-6.94303033,39.3812736 3.42680639,65.2298007 17.2136495,78.5442632 C29.5103955,90.420334 51.0921231,98.6679565 62.9928108,91.0708572 C71.6871492,85.5207221 69.5203091,75.1474059 82.7170829,64.6913376 C91.2954738,57.8953242 95.5264085,59.651507 98.3206278,54.8174071 C104.993347,43.2746433 91.1089246,15.53776 68.5864153,5.15352512 C49.7615971,-3.52567242 19.2335463,-2.69642776 5.73197988,19.0064508" id="Fill-10" fill="#6376E8"></path>
                    <path d="M74.761788,40.1425409 L73.9986372,43 L73.2354865,40.1425409 C72.594985,37.7338215 71.065958,35.7014646 69,34.5 C71.065958,33.2985354 72.594985,31.2661785 73.2354865,28.8574591 L73.9986372,26 L74.761788,28.8574591 C75.405015,31.2661785 76.9313164,33.2985354 79,34.5 C76.9313164,35.7014646 75.405015,37.7338215 74.761788,40.1425409" id="Fill-165" fill="#FFFFFF"></path>
                </g>
                <path d="M75.1467174,79.4574775 C72.7179833,79.4574775 70.4771534,80.2725481 68.6797774,81.641647 L57.352912,70.3147816 C58.7220109,68.5174056 59.5373706,66.2761421 59.5373706,63.8475525 C59.5373706,62.6880391 59.3494664,61.5720326 59.006469,60.5256953 L70.664624,54.8733923 C72.1886716,56.9806657 74.6658272,58.3555463 77.4593845,58.3555463 C82.0815389,58.3555463 85.8420802,54.595005 85.8420802,49.9728507 C85.8420802,45.3506963 82.0815389,41.590155 77.4593845,41.590155 C72.8372302,41.590155 69.0766889,45.3506963 69.0766889,49.9728507 C69.0766889,50.7710099 69.1911659,51.5422844 69.4004623,52.274099 L57.74303,57.9261129 C56.0776206,55.4310342 53.3921805,53.6744189 50.2875694,53.2529354 L50.2875694,49.4105835 C52.2939527,48.7918005 53.756281,46.9204191 53.756281,44.7138456 C53.756281,42.0041225 51.5518756,39.7998616 48.842297,39.7998616 C46.1327183,39.7998616 43.9283129,42.004267 43.9283129,44.7138456 C43.9283129,46.9207082 45.3906413,48.7920896 47.3970246,49.4105835 L47.3970246,53.2529354 C45.5270886,53.5067506 43.8094997,54.2442023 42.3750679,55.3369375 L33.0321818,45.9940514 C35.3103034,43.0732974 36.1155452,39.2037716 35.1287591,35.5776541 C34.9190291,34.8072469 34.1246279,34.3526633 33.3546543,34.5626824 C32.5843916,34.7722678 32.1300971,35.5665244 32.3396825,36.3367871 C33.1794698,39.4226078 32.3044143,42.7412851 30.056791,45.0082771 C30.0473958,45.0172386 30.0374224,45.0248993 30.0281717,45.03415 C30.0200774,45.0422443 30.0131394,45.0512059 30.0053341,45.0594448 C26.5095932,48.5288791 20.8432697,48.521363 17.3577912,45.03574 C13.8639294,41.5420227 13.8639294,35.8570532 17.3577912,32.3631914 C19.5674001,30.1534379 22.7054004,29.2614711 25.7521948,29.9766634 C26.5288173,30.158786 27.3070298,29.677173 27.4895859,28.8999723 C27.6719975,28.1229162 27.189951,27.3451373 26.4128948,27.1625812 C22.3848069,26.2169894 18.235593,27.3967387 15.3133935,30.3187936 C10.6925401,34.9396471 10.6925401,42.458417 15.3133935,47.079415 C17.6238925,49.389914 20.6586899,50.5450912 23.6936319,50.5450912 C26.2738457,50.5450912 28.852036,49.7068939 30.9870613,48.0370037 L40.3306701,57.3806126 C38.9617158,59.1779885 38.1466451,61.418963 38.1466451,63.8472635 C38.1466451,69.7447092 42.9444176,74.5424817 48.8418633,74.5424817 C51.2704529,74.5424817 53.5112828,73.7274111 55.3085143,72.3584567 L66.6355242,83.6853221 C65.2664253,85.4826981 64.4513547,87.723817 64.4513547,90.1522621 C64.4513547,96.0497078 69.2491271,100.84748 75.1465729,100.84748 C81.0440186,100.84748 85.8417911,96.0497078 85.8417911,90.1522621 C85.8419356,84.2551054 81.0440186,79.4574775 75.1467174,79.4574775 Z M77.4590954,44.4804108 C80.4873885,44.4804108 82.9512462,46.9442685 82.9512462,49.9725616 C82.9512462,53.0008546 80.4873885,55.4647124 77.4590954,55.4647124 C74.4308024,55.4647124 71.9669446,53.0008546 71.9669446,49.9725616 C71.9669446,46.944124 74.4308024,44.4804108 77.4590954,44.4804108 Z M46.8184241,44.7132675 C46.8184241,43.5975501 47.7260015,42.6898283 48.8418633,42.6898283 C49.9575807,42.6898283 50.8653025,43.5974056 50.8653025,44.7132675 C50.8653025,45.8289848 49.9577252,46.7367066 48.8418633,46.7367066 C47.726146,46.7367066 46.8184241,45.8291293 46.8184241,44.7132675 Z M48.8418633,71.6520814 C44.5382789,71.6520814 41.03719,68.1509924 41.03719,63.847408 C41.03719,59.5438236 44.5382789,56.0427346 48.8418633,56.0427346 C53.1454478,56.0427346 56.6465367,59.5438236 56.6465367,63.847408 C56.6465367,68.1508479 53.1454478,71.6520814 48.8418633,71.6520814 Z M75.1467174,97.9573691 C70.843133,97.9573691 67.342044,94.4562801 67.342044,90.1526957 C67.342044,85.8491113 70.843133,82.3480223 75.1467174,82.3480223 C79.4503018,82.3480223 82.9513908,85.8491113 82.9513908,90.1526957 C82.9512462,94.4562801 79.4501573,97.9573691 75.1467174,97.9573691 Z M32.1233036,30.368516 C32.6851372,30.9356976 32.6808009,31.8507911 32.1134748,32.4124801 C31.831763,32.6917346 31.4640489,32.8310728 31.0964794,32.8310728 C30.7244291,32.8310728 30.3523787,32.6882656 30.0696552,32.4029403 L30.0323634,32.365215 C29.4664827,31.8020805 29.4643146,30.8871316 30.027449,30.3212508 C30.590728,29.7553701 31.5056769,29.7533465 32.0714131,30.3163364 L32.1233036,30.368516 Z M35.8082496,76.8810218 C36.3726849,77.4454571 36.3726849,78.3606951 35.8082496,78.9251304 L27.0815447,87.6518353 C28.0414461,89.0151525 28.6074714,90.6747803 28.6074714,92.4652183 C28.6074714,97.0873726 24.8469301,100.847914 20.2247758,100.847914 C15.6026214,100.847914 11.8420802,97.0873726 11.8420802,92.4652183 C11.8420802,87.8430639 15.6026214,84.0825227 20.2247758,84.0825227 C22.0149247,84.0825227 23.6742633,84.6484034 25.0374361,85.6078712 L33.7642855,76.8810218 C34.3287208,76.3165864 35.2438143,76.3165864 35.8082496,76.8810218 Z M20.2247758,97.9573691 C23.2530688,97.9573691 25.7169266,95.4935113 25.7169266,92.4652183 C25.7169266,89.4369252 23.2530688,86.9730675 20.2247758,86.9730675 C17.1964827,86.9730675 14.732625,89.4369252 14.732625,92.4652183 C14.732625,95.4935113 17.1964827,97.9573691 20.2247758,97.9573691 Z M39.2408258,73.4485901 C39.5095288,73.7172931 39.6643329,74.0903552 39.6643329,74.4703554 C39.6643329,74.8503555 39.5096733,75.2232731 39.2408258,75.4921206 C38.9721228,75.7609682 38.5992052,75.9156278 38.2190605,75.9156278 C37.8390604,75.9156278 37.4661428,75.7609682 37.1972953,75.4921206 C36.9284477,75.2234176 36.7737881,74.8503555 36.7737881,74.4703554 C36.7737881,74.0903552 36.9284477,73.7174377 37.1972953,73.4485901 C37.4659983,73.1797426 37.8390604,73.025083 38.2190605,73.025083 C38.5990606,73.025083 38.9719782,73.1797426 39.2408258,73.4485901 Z" id="network" fill="#FFFFFF" fill-rule="nonzero"></path>
            </g>
        </g>
    </g>
</svg>