<?xml version="1.0" encoding="UTF-8"?>
<svg width="110px" height="111px" viewBox="0 0 110 111" version="1.1" xmlns="http://www.w3.org/2000/svg" xmlns:xlink="http://www.w3.org/1999/xlink">
    <!-- Generator: Sketch 51.3 (57544) - http://www.bohemiancoding.com/sketch -->
    <title>Value</title>
    <desc>Created with Sketch.</desc>
    <defs></defs>
    <g id="Page-1" stroke="none" stroke-width="1" fill="none" fill-rule="evenodd">
        <g id="Why-Arbisoft-Copy" transform="translate(-163.000000, -2373.000000)">
            <g id="Value" transform="translate(163.000000, 2373.000000)">
                <g id="Group-8-Copy-3">
                    <path d="M15.7319799,36.0064508 C3.05696967,56.3812736 13.4268064,82.2298007 27.2136495,95.5442632 C39.5103955,107.420334 61.0921231,115.667957 72.9928108,108.070857 C81.6871492,102.520722 79.5203091,92.1474059 92.7170829,81.6913376 C101.295474,74.8953242 105.526408,76.651507 108.320628,71.8174071 C114.993347,60.2746433 101.108925,32.53776 78.5864153,22.1535251 C59.7615971,13.4743276 29.2335463,14.3035722 15.7319799,36.0064508" id="Fill-10" fill="#6376E8"></path>
                    <path d="M87.761788,14.1425409 L86.9986372,17 L86.2354865,14.1425409 C85.594985,11.7338215 84.065958,9.70146458 82,8.5 C84.065958,7.29853542 85.594985,5.26617847 86.2354865,2.85745913 L86.9986372,0 L87.761788,2.85745913 C88.405015,5.26617847 89.9313164,7.29853542 92,8.5 C89.9313164,9.70146458 88.405015,11.7338215 87.761788,14.1425409" id="Fill-165" fill="#FFFFFF"></path>
                    <path d="M5.76178795,94.1425409 L4.99863723,97 L4.23548651,94.1425409 C3.59498501,91.7338215 2.06595803,89.7014646 0,88.5 C2.06595803,87.2985354 3.59498501,85.2661785 4.23548651,82.8574591 L4.99863723,80 L5.76178795,82.8574591 C6.40501499,85.2661785 7.93131643,87.2985354 10,88.5 C7.93131643,89.7014646 6.40501499,91.7338215 5.76178795,94.1425409" id="Fill-165-Copy-4" fill="#FFFFFF"></path>
                </g>
                <path d="M53.044546,95.8094374 C53.3771709,96.1418835 53.5684168,96.6030184 53.5684168,97.0730901 C53.5684168,97.5431618 53.3769921,98.0042967 53.044546,98.3365641 C52.7122786,98.669189 52.2511437,98.8604349 51.781072,98.8604349 C51.3110003,98.8604349 50.8498654,98.6690103 50.5174193,98.3365641 C50.1847944,98.0042967 49.9937272,97.5431618 49.9937272,97.0730901 C49.9937272,96.6030184 50.1849731,96.1420622 50.5174193,95.8094374 C50.8498654,95.4768125 51.3110003,95.2857454 51.781072,95.2857454 C52.2511437,95.2857454 52.7122786,95.4768125 53.044546,95.8094374 Z M78.1853375,91.0765484 C78.5177836,91.4106032 78.7072421,91.8717381 78.7072421,92.3400224 C78.7072421,92.8120602 78.5177836,93.2712291 78.1853375,93.6054625 C77.851104,93.9380874 77.3899691,94.1293333 76.9198974,94.1293333 C76.4498257,94.1293333 75.9886908,93.9379087 75.6564234,93.6054625 C75.3237985,93.2712291 75.1325526,92.8120602 75.1325526,92.3400224 C75.1325526,91.8699508 75.3239772,91.4106032 75.6564234,91.0765484 C75.9886908,90.7439236 76.4498257,90.5526777 76.9198974,90.5526777 C77.3919351,90.5526777 77.851104,90.7441023 78.1853375,91.0765484 Z M89.5292572,64.5434154 L89.5288998,64.5434154 L89.5288998,67.6158611 L99.5845014,77.6714627 C101.834411,76.4984283 104.680758,76.8548249 106.567836,78.7417247 C107.695114,79.8688244 108.316038,81.3678704 108.316038,82.9620032 C108.316038,84.5563147 107.695293,86.0551821 106.567657,87.1824604 C105.404453,88.3458431 103.875737,88.9278026 102.347558,88.9278026 C100.81902,88.9278026 99.2908407,88.3462006 98.1271005,87.1824604 C96.2402006,85.2953818 95.8838041,82.4490353 97.0568384,80.1991257 L89.5290785,72.6713657 L89.5290785,90.8658205 C90.4197124,91.1439313 91.2581558,91.6334851 91.9621909,92.3376989 C94.2893138,94.6650005 94.2893138,98.4513117 91.9621909,100.778613 C90.7988082,101.942175 89.270271,102.523955 87.7417337,102.523955 C86.213554,102.523955 84.6850167,101.942175 83.5214553,100.778613 C82.3941769,99.6515137 81.7732534,98.1524676 81.7732534,96.5581561 C81.7732534,94.9640233 82.3939982,93.465156 83.521634,92.3378776 C84.2256691,91.6338425 85.0639338,91.1441101 85.954389,90.866178 L85.954389,64.5434154 L65.5661472,64.5434154 L65.5661472,65.4083115 L78.2019598,78.3529773 C78.5277927,78.6868533 78.7102806,79.1349406 78.7102806,79.6014376 L78.7102806,84.651044 C78.7102806,85.6380158 77.9099076,86.4383888 76.9229359,86.4383888 C75.9359641,86.4383888 75.1355911,85.6380158 75.1355911,84.651044 L75.1355911,80.3290656 L65.5661472,70.5258371 L65.5661472,95.1754662 C68.4350143,95.9699409 70.5480133,98.6023423 70.5480133,101.720544 C70.5480133,105.465567 67.5011267,108.512454 63.7561032,108.512454 C60.0110797,108.512454 56.9641931,105.465567 56.9641931,101.720544 C56.9641931,98.5858987 59.0993551,95.9417009 61.9914577,95.1625973 L61.9914577,74.8244012 L53.568238,81.2499057 L53.568238,89.9237111 C53.568238,90.9106828 52.7678651,91.7110558 51.7808933,91.7110558 C50.7939215,91.7110558 49.9935485,90.9106828 49.9935485,89.9237111 L49.9935485,80.36517 C49.9935485,79.8076972 50.2537859,79.2823965 50.6968687,78.9440522 L61.9914577,70.327978 L61.9914577,64.5434154 L41.5483445,64.5434154 L41.5483445,90.866178 C42.4389784,91.1442888 43.2772431,91.6338425 43.9814569,92.3380564 C46.3085798,94.665358 46.3085798,98.4516691 43.9814569,100.778971 C42.8178955,101.942532 41.2893582,102.524313 39.7609997,102.524313 C38.2326412,102.524313 36.7042827,101.942532 35.5405425,100.778971 C33.2134197,98.4516691 33.2134197,94.665358 35.5405425,92.3380564 C36.2447564,91.6338425 37.0830211,91.1441101 37.973655,90.866178 L37.973655,72.6713657 L30.4460738,80.1991257 C31.6192869,82.4490353 31.2627116,85.2953818 29.3758117,87.1824604 C28.2122503,88.3460218 26.683713,88.9278026 25.1553545,88.9278026 C23.626996,88.9278026 22.0986375,88.3460218 20.9348973,87.1824604 C18.6077745,84.8551588 18.6077745,81.0688476 20.9348973,78.741546 C22.8219759,76.8546461 25.6683225,76.4980709 27.9184108,77.671284 L37.9738337,67.6158611 L37.9738337,64.5434154 L19.7876007,64.5434154 C18.800629,64.5434154 18.000256,63.7430424 18.000256,62.7560706 C18.000256,61.7689201 18.800629,60.9687259 19.7876007,60.9687259 L37.9740124,60.9687259 L37.9740124,47.9836662 C37.1647027,48.0828638 36.3589677,48.1332669 35.5619907,48.1332669 C30.7899589,48.1332669 26.3115879,46.3757708 23.0344912,43.0988529 C18.7146577,38.7790194 17.0350898,32.3701372 18.5418214,25.9551782 C18.696963,25.2947543 19.2126119,24.7791053 19.8730358,24.6239638 C26.2876374,23.1170534 32.6966983,24.7964425 37.0168893,29.1166336 C41.2965076,33.3962519 42.9826887,39.7263121 41.5485232,46.0812164 L41.5485232,60.9687259 L61.9916364,60.9687259 L61.9916364,47.3107309 C56.9019935,43.8037817 53.8919262,38.3614956 53.8919262,32.5671026 C53.8919262,26.4579582 57.236227,20.738455 62.8377655,17.2679677 C63.4143629,16.9106774 64.1435995,16.9106774 64.7203757,17.2679677 C70.3219142,20.7386337 73.666215,26.4579582 73.666215,32.5671026 C73.666215,38.3614956 70.6561477,43.8037817 65.5665047,47.3107309 L65.5665047,60.9687259 L85.9547464,60.9687259 L85.9547464,46.0445758 C84.535416,39.7018255 86.2232056,33.3880301 90.4946021,29.1164548 C94.8146144,24.7964425 101.223497,23.1170534 107.638456,24.6239638 C108.29888,24.7789266 108.814528,25.2947543 108.96967,25.9551782 C110.476223,32.3701372 108.796834,38.7790194 104.477,43.0988529 C101.200082,46.3757708 96.7211751,48.1332669 91.9495008,48.1332669 C91.1494853,48.1332669 90.341248,48.0825063 89.5292572,47.9825938 L89.5292572,60.9687259 L107.724963,60.9687259 C108.711935,60.9687259 109.512308,61.7689201 109.512308,62.7560706 C109.512308,63.7430424 108.711935,64.5434154 107.724963,64.5434154 L89.5292572,64.5434154 Z M26.8481488,84.6546187 C27.7816789,83.721446 27.7816789,82.2027391 26.8483275,81.2693877 C26.381473,80.802712 25.7685925,80.5692848 25.1555333,80.5692848 C24.542474,80.5692848 23.9294148,80.802712 23.462739,81.2693877 C22.5292089,82.2025604 22.5292089,83.7212673 23.462739,84.6546187 C24.3960905,85.5881489 25.9146186,85.5881489 26.8481488,84.6546187 Z M29.0851895,37.7032166 C28.3872313,37.0052584 28.3872313,35.8735117 29.0851895,35.1755536 C29.7835051,34.4775955 30.9148943,34.4775955 31.6130312,35.1755536 L38.4700006,42.0323443 C38.5652661,38.0538936 37.1707797,34.3258499 34.4890476,31.6441178 C31.29542,28.4501327 26.6181175,27.0810266 21.799436,27.8815783 C20.9992417,32.6993662 22.3683478,37.3772049 25.5621542,40.57119 C28.2401329,43.2491686 31.9619209,44.643655 35.9342946,44.552143 L29.0851895,37.7032166 Z M41.4539727,98.2511291 C42.3873241,97.3177776 42.3873241,95.7990708 41.4541514,94.8658981 C40.987297,94.3992223 40.3744165,94.1657951 39.7613572,94.1657951 C39.148298,94.1657951 38.5352387,94.3992223 38.068563,94.8658981 C37.1350328,95.7990708 37.1350328,97.3177776 38.068563,98.2511291 C39.0019144,99.1846592 40.5204425,99.1846592 41.4539727,98.2511291 Z M66.9735025,101.720544 C66.9735025,99.9466043 65.5302216,98.5033234 63.7562819,98.5033234 C61.9823423,98.5033234 60.5390614,99.9466043 60.5390614,101.720544 C60.5390614,103.494484 61.9823423,104.937765 63.7562819,104.937765 C65.5302216,104.937765 66.9735025,103.494484 66.9735025,101.720544 Z M65.0431702,29.7223647 C65.3756163,30.0548108 65.5668622,30.5159458 65.5668622,30.9860175 C65.5668622,31.4560891 65.3754376,31.9172241 65.0431702,32.2496702 C64.710724,32.5821163 64.2495891,32.7733622 63.7795174,32.7733622 C63.3094457,32.7733622 62.8483108,32.5821163 62.5158647,32.2496702 C62.1816312,31.9172241 61.9921726,31.4560891 61.9921726,30.9860175 C61.9921726,30.5159458 62.1816312,30.0548108 62.5158647,29.7223647 C62.8483108,29.3899186 63.3076584,29.1986727 63.7795174,29.1986727 C64.2495891,29.1986727 64.710724,29.3899186 65.0431702,29.7223647 Z M63.7789812,35.392716 C64.765953,35.392716 65.566326,36.1929102 65.566326,37.1800607 L65.566326,42.7220807 C68.4434148,39.9768978 70.0913467,36.3569885 70.0913467,32.5671026 C70.0913467,28.0503037 67.7517124,23.7746175 63.7789812,20.9338118 C59.8064287,23.7746175 57.4666157,28.0503037 57.4666157,32.5671026 C57.4666157,36.3571672 59.1145476,39.9768978 61.9916364,42.7220807 L61.9916364,37.1800607 C61.9916364,36.1929102 62.7920094,35.392716 63.7789812,35.392716 Z M100.6553,81.2695664 C99.7217695,82.2027391 99.7217695,83.721446 100.6553,84.6547974 C101.588294,85.5883276 103.107358,85.5885063 104.040531,84.6547974 C104.492729,84.2024205 104.741885,83.6015152 104.741885,82.9620032 C104.741885,82.32267 104.492729,81.7215859 104.040709,81.2693877 C103.573855,80.802712 102.960796,80.5692848 102.347736,80.5692848 C101.734677,80.5692848 101.121797,80.802712 100.6553,81.2695664 Z M89.4347067,98.2511291 C90.3682369,97.3177776 90.3682369,95.7990708 89.4348854,94.8657193 C88.9682097,94.3990436 88.3553292,94.1656164 87.7420912,94.1656164 C87.1290319,94.1656164 86.5159727,94.3990436 86.0494757,94.8657193 L86.049297,94.8657193 C85.5972775,95.3180963 85.3481216,95.9190016 85.3481216,96.5583348 C85.3481216,97.1978468 85.5972775,97.7989308 86.049297,98.2511291 C86.9826484,99.1846592 88.501534,99.1846592 89.4347067,98.2511291 Z M89.0409546,42.0246587 L95.889881,35.1757323 C96.5883754,34.4777742 97.7197646,34.4777742 98.4177227,35.1757323 C99.1156809,35.8736905 99.1156809,37.0054372 98.4177227,37.7033953 L91.5687963,44.5523217 C95.5442086,44.6454424 99.2692138,43.2511347 101.949159,40.57119 C105.142965,37.3772049 106.51225,32.6993662 105.711877,27.8815783 C100.893016,27.0812054 96.2158927,28.4503114 93.0222651,31.6441178 C90.3424991,34.3240625 88.9480127,38.048889 89.0409546,42.0246587 Z" id="infographic" fill="#FFFFFF" fill-rule="nonzero"></path>
            </g>
        </g>
    </g>
</svg>