<?xml version="1.0" encoding="UTF-8"?>
<svg width="110px" height="107px" viewBox="0 0 110 107" version="1.1" xmlns="http://www.w3.org/2000/svg" xmlns:xlink="http://www.w3.org/1999/xlink">
    <!-- Generator: Sketch 51.3 (57544) - http://www.bohemiancoding.com/sketch -->
    <title>Expert Development</title>
    <desc>Created with Sketch.</desc>
    <defs></defs>
    <g id="Page-1" stroke="none" stroke-width="1" fill="none" fill-rule="evenodd">
        <g id="Why-Arbisoft-Copy" transform="translate(-93.000000, -695.000000)">
            <g id="Expert-Development" transform="translate(93.000000, 695.000000)">
                <g id="Group-8" transform="translate(10.000000, 0.000000)">
                    <path d="M5.73197988,19.0064508 C-6.94303033,39.3812736 3.42680639,65.2298007 17.2136495,78.5442632 C29.5103955,90.420334 51.0921231,98.6679565 62.9928108,91.0708572 C71.6871492,85.5207221 69.5203091,75.1474059 82.7170829,64.6913376 C91.2954738,57.8953242 95.5264085,59.651507 98.3206278,54.8174071 C104.993347,43.2746433 91.1089246,15.53776 68.5864153,5.15352512 C49.7615971,-3.52567242 19.2335463,-2.69642776 5.73197988,19.0064508" id="Fill-10" fill="#F4F4F4"></path>
                    <path d="M74.761788,40.1425409 L73.9986372,43 L73.2354865,40.1425409 C72.594985,37.7338215 71.065958,35.7014646 69,34.5 C71.065958,33.2985354 72.594985,31.2661785 73.2354865,28.8574591 L73.9986372,26 L74.761788,28.8574591 C75.405015,31.2661785 76.9313164,33.2985354 79,34.5 C76.9313164,35.7014646 75.405015,37.7338215 74.761788,40.1425409" id="Fill-165" fill="#FF57A4"></path>
                </g>
                <path d="M15.4570728,90.3191417 L14.9991823,92 L14.5412919,90.3191417 C14.156991,88.902248 13.2395748,87.7067439 12,87 C13.2395748,86.2932561 14.156991,85.097752 14.5412919,83.6808583 L14.9991823,82 L15.4570728,83.6808583 C15.843009,85.097752 16.7587899,86.2932561 18,87 C16.7587899,87.7067439 15.843009,88.902248 15.4570728,90.3191417" id="Fill-165-Copy" fill="#FF57A4"></path>
                <path d="M91.6798623,66.9886759 C91.565607,64.9397808 90.5548593,63.0631641 88.9067533,61.8403815 C86.4798128,60.0398753 83.1981064,60.0490086 80.7953422,61.7703598 C77.5625256,58.8806674 73.8424227,56.6988923 69.8313089,55.3036522 C69.8313089,55.2993542 69.8320253,55.2950562 69.8320253,55.2905791 L69.8320253,46.2445309 L77.1355904,40.7353831 C77.5841947,40.3969152 77.8479848,39.8675441 77.8479848,39.3059381 L77.8479848,32.1819938 C80.2611359,31.4119344 82.0140058,29.1492136 82.0140058,26.484271 C82.0140058,23.1871634 79.3315131,20.5044916 76.0342265,20.5044916 C72.7369398,20.5044916 70.0544471,23.1869844 70.0544471,26.484271 C70.0544471,29.1664056 71.8295234,31.4416623 74.2666716,32.1970368 L74.2666716,38.4139228 L66.9631065,43.9228915 C66.5145022,44.2613595 66.2507121,44.7907305 66.2507121,45.3523366 L66.2507121,54.2844876 C64.4836945,53.8903247 62.6745923,53.6428312 60.8382694,53.5466633 L60.8382694,38.9954072 C60.8382694,38.0065077 60.0365123,37.2047506 59.0476129,37.2047506 C58.0585343,37.2047506 57.2569563,38.0066868 57.2569563,38.9954072 L57.2569563,53.5520358 C55.4589573,53.6514272 53.6876417,53.8978462 51.9496357,54.2869948 L51.9496357,45.3521575 C51.9496357,44.7901932 51.6858456,44.2608222 51.2372412,43.9227124 L43.9336761,38.4137437 L43.9336761,32.1972159 C46.3708244,31.4416623 48.1459007,29.1664056 48.1459007,26.484271 C48.1459007,23.1871634 45.463408,20.5044916 42.1661213,20.5044916 C38.8688347,20.5044916 36.1863419,23.1869844 36.1863419,26.484271 C36.1863419,29.1493926 37.9392119,31.4121135 40.3523629,32.1819938 L40.3523629,39.3064753 C40.3523629,39.8684396 40.616153,40.3978106 41.0647574,40.7359204 L48.3683225,46.2448891 L48.3683225,55.2909373 C48.3683225,55.296847 48.3692179,55.3025777 48.3692179,55.3084875 C47.5431054,55.5971702 46.7263053,55.9189833 45.919892,56.276076 C41.9748601,58.0224989 38.4655385,60.4986874 35.483618,63.6349779 C34.1738008,63.9276005 32.9037401,64.4147078 31.7237585,65.0939717 L18.6685665,72.6106463 L15.9425564,69.8846363 C14.8904404,68.8326994 13.4919769,68.2535431 12.0043297,68.2535431 C10.5166825,68.2535431 9.11803982,68.8328785 8.06610295,69.8846363 L1.63127221,76.3192879 C0.57933534,77.3712248 0,78.7696884 0,80.2573355 C0,81.7449827 0.57933534,83.1436254 1.63109313,84.1955623 L22.4930751,105.057544 C23.5451911,106.109481 24.9436547,106.688637 26.4313018,106.688637 C27.918949,106.688637 29.3175917,106.109302 30.3695286,105.057544 L36.8043593,98.6227135 C38.9757476,96.4511462 38.9757476,92.9180065 36.8043593,90.7464392 L21.2907081,75.232967 L33.5102962,68.1973109 C35.8623797,66.8430809 38.700317,66.5221632 41.295417,67.3165779 L59.6258737,72.9294151 C60.9940721,73.3484706 61.8839384,74.6860458 61.741746,76.1099392 C61.5871969,77.6568631 60.2983325,78.8234134 58.743708,78.8234134 L46.2594344,78.8234134 C45.2703559,78.8234134 44.4687778,79.6253496 44.4687778,80.61407 C44.4687778,81.6027904 45.2705349,82.4047266 46.2594344,82.4047266 L63.0913198,82.4172625 C63.5442221,82.4172625 63.9802906,82.2457004 64.3115952,81.9369603 L82.5491075,64.9521376 C83.7160161,63.8654585 85.492346,63.7666043 86.7724353,64.7164636 C87.5636265,65.3033204 88.0485848,66.2041108 88.1035635,67.1878168 C88.1585421,68.1715228 87.7761987,69.1204867 87.0552083,69.791871 L65.8526093,89.5306408 C64.3900338,90.8920341 62.4842265,91.641857 60.4860121,91.641857 L50.8597331,91.641857 C49.8706545,91.641857 49.0690765,92.4437932 49.0690765,93.4325136 C49.0690765,94.421413 49.8708336,95.2231702 50.8597331,95.2231702 L60.4861912,95.2231702 C63.3927174,95.2231702 66.1651102,94.1323722 68.2929811,92.151887 L89.4961173,72.4132962 C90.9980912,71.0153699 91.7941176,69.0379291 91.6798623,66.9886759 Z M73.6355812,26.484271 C73.6355812,25.1619179 74.7115152,24.0858048 76.0340474,24.0858048 C77.3564004,24.0858048 78.4325136,25.1617389 78.4325136,26.484271 C78.4325136,27.8068031 77.3567586,28.8827372 76.0340474,28.8827372 C74.7113361,28.8827372 73.6355812,27.8066241 73.6355812,26.484271 Z M42.1663004,28.8827372 C40.8437683,28.8827372 39.7678342,27.8068031 39.7678342,26.484271 C39.7678342,25.1617389 40.8437683,24.0858048 42.1663004,24.0858048 C43.4886535,24.0858048 44.5647666,25.1617389 44.5647666,26.484271 C44.5647666,27.8068031 43.4886535,28.8827372 42.1663004,28.8827372 Z M34.2719386,93.279039 C35.0471913,94.0541126 35.0471913,95.3153982 34.2719386,96.0904719 L27.8371079,102.525303 C27.4615696,102.90102 26.9622846,103.107682 26.4314809,103.107682 C25.9006772,103.107682 25.4012132,102.90102 25.025854,102.525303 L4.16369294,81.6633206 C3.7881547,81.2877824 3.58131318,80.7884974 3.58131318,80.2575146 C3.58131318,79.7265319 3.7881547,79.2272469 4.16369294,78.8518877 L10.5985237,72.417057 C10.9740619,72.0413397 11.4733469,71.8346772 12.0041506,71.8346772 C12.5351334,71.8346772 13.0344184,72.0413397 13.4097775,72.417057 L34.2719386,93.279039 Z M65.3309389,76.0943589 C65.4586255,73.1196018 63.5499528,70.3857121 60.6747661,69.5053373 L42.3444885,63.8925001 C41.8530832,63.7420699 41.3550518,63.6238747 40.8537969,63.5318258 C45.992779,59.3487918 52.3418287,57.0815939 59.1004425,57.0815939 C66.1538279,57.0815939 72.840271,59.5932409 78.1178638,64.1860181 L65.3309389,76.0943589 Z M44.899832,92.1665718 C45.2329274,92.4996673 45.4245468,92.9615238 45.4245468,93.4325136 C45.4245468,93.9033243 45.2329274,94.3653599 44.899832,94.6982762 C44.5669156,95.0315508 44.10488,95.2231702 43.6338902,95.2231702 C43.1612887,95.2231702 42.7010439,95.0313717 42.3661577,94.6982762 C42.0330622,94.365539 41.8432336,93.9035034 41.8432336,93.4325136 C41.8432336,92.9617029 42.0330622,92.4996673 42.3661577,92.1665718 C42.7008648,91.8332973 43.1611096,91.641857 43.6338902,91.641857 C44.1047009,91.641857 44.5667365,91.8334764 44.899832,92.1665718 Z M60.3140918,31.4622569 C60.6471873,31.7951733 60.8388067,32.2572089 60.8388067,32.7281986 C60.8388067,33.1990093 60.6471873,33.661045 60.3140918,33.9939613 C59.9811755,34.3272358 59.5191399,34.5188552 59.0481501,34.5188552 C58.5755486,34.5188552 58.1153038,34.3270567 57.7804175,33.9939613 C57.4473221,33.661224 57.2574935,33.1991884 57.2574935,32.7281986 C57.2574935,32.257388 57.4473221,31.7953523 57.7804175,31.4622569 C58.1153038,31.1291615 58.5753695,30.9375421 59.0481501,30.9375421 C59.5189608,30.9375421 59.9809964,31.1291615 60.3140918,31.4622569 Z M28.4076681,93.9572284 C28.7407635,94.2903239 28.9323829,94.7523595 28.9323829,95.2231702 C28.9323829,95.6939809 28.7407635,96.1560165 28.4076681,96.4889328 C28.0747517,96.8222073 27.6127161,97.0138268 27.1417264,97.0138268 C26.6709157,97.0138268 26.2088801,96.8222073 25.8757846,96.4889328 C25.5426892,96.1561956 25.3510698,95.69416 25.3510698,95.2231702 C25.3510698,94.7523595 25.5426892,94.2903239 25.8757846,93.9572284 C26.208701,93.6239539 26.6707366,93.4325136 27.1417264,93.4325136 C27.6125371,93.4325136 28.0745727,93.624133 28.4076681,93.9572284 Z M59.0476129,15 C62.7995927,15 65.8522512,18.0526585 65.8522512,21.8046383 C65.8522512,25.5566181 62.7995927,28.6092766 59.0476129,28.6092766 C55.295454,28.6092766 52.2429746,25.5566181 52.2429746,21.8046383 C52.2429746,18.0526585 55.295633,15 59.0476129,15 Z M59.0476129,25.0279634 C60.8248382,25.0279634 62.270938,23.5820427 62.270938,21.8046383 C62.270938,20.0272339 60.8248382,18.5813132 59.0476129,18.5813132 C57.2700294,18.5813132 55.8242877,20.0272339 55.8242877,21.8046383 C55.8242877,23.5820427 57.2703875,25.0279634 59.0476129,25.0279634 Z M29.1798764,34.586907 C30.1687759,34.586907 30.970533,35.3888432 30.970533,36.3775636 C30.970533,37.366284 30.168955,38.1682202 29.1798764,38.1682202 L27.9517213,38.1682202 C26.9628219,38.1682202 26.1610647,37.366284 26.1610647,36.3775636 C26.1610647,35.3888432 26.9626428,34.586907 27.9517213,34.586907 L29.1798764,34.586907 Z M20.4914581,34.586907 C21.4803575,34.586907 22.2821147,35.3888432 22.2821147,36.3775636 C22.2821147,37.366284 21.4805366,38.1682202 20.4914581,38.1682202 L19.263303,38.1682202 C18.2744035,38.1682202 17.4726464,37.366284 17.4726464,36.3775636 C17.4726464,35.3888432 18.2742244,34.586907 19.263303,34.586907 L20.4914581,34.586907 Z M24.2215897,38.3172177 C25.2104892,38.3172177 26.0122463,39.1189748 26.0122463,40.1078743 L26.0122463,41.3360294 C26.0122463,42.3247498 25.2106683,43.126686 24.2215897,43.126686 C23.2326903,43.126686 22.4309331,42.3249288 22.4309331,41.3360294 L22.4309331,40.1078743 C22.4309331,39.1191539 23.2325112,38.3172177 24.2215897,38.3172177 Z M24.2215897,29.6284412 C25.2104892,29.6284412 26.0122463,30.4303774 26.0122463,31.4192769 L26.0122463,32.6472529 C26.0122463,33.6359733 25.2106683,34.4379095 24.2215897,34.4379095 C23.2326903,34.4379095 22.4309331,33.6361523 22.4309331,32.6472529 L22.4309331,31.4190978 C22.4309331,30.4303774 23.2325112,29.6284412 24.2215897,29.6284412 Z M89.8929665,44.9347137 C90.8818659,44.9347137 91.6836231,45.7366499 91.6836231,46.7253703 C91.6836231,47.7140906 90.882045,48.5160268 89.8929665,48.5160268 L88.6648114,48.5160268 C87.6759119,48.5160268 86.8741548,47.7140906 86.8741548,46.7253703 C86.8741548,45.7366499 87.6757328,44.9347137 88.6648114,44.9347137 L89.8929665,44.9347137 Z M81.204369,44.9347137 C82.1932685,44.9347137 82.9950256,45.7366499 82.9950256,46.7253703 C82.9950256,47.7140906 82.1934476,48.5160268 81.204369,48.5160268 L79.9762139,48.5160268 C78.9873145,48.5160268 78.1855573,47.7140906 78.1855573,46.7253703 C78.1855573,45.7366499 78.9871354,44.9347137 79.9762139,44.9347137 L81.204369,44.9347137 Z M84.9345007,48.6650244 C85.9235792,48.6650244 86.7251572,49.4667815 86.7251572,50.455681 L86.7251572,51.6838361 C86.7251572,52.6725564 85.9235792,53.4744927 84.9345007,53.4744927 C83.9456012,53.4744927 83.1438441,52.6727355 83.1438441,51.6838361 L83.1438441,50.455681 C83.1438441,49.4669606 83.9454221,48.6650244 84.9345007,48.6650244 Z M84.9345007,39.9764269 C85.9235792,39.9764269 86.7251572,40.7781841 86.7251572,41.7670835 L86.7251572,42.9952386 C86.7251572,43.983959 85.9235792,44.7858952 84.9345007,44.7858952 C83.9456012,44.7858952 83.1438441,43.9843172 83.1438441,42.9952386 L83.1438441,41.7670835 C83.1438441,40.7783632 83.9454221,39.9764269 84.9345007,39.9764269 Z" id="development-1" fill="#525DEA" fill-rule="nonzero"></path>
            </g>
        </g>
    </g>
</svg>