<?xml version="1.0" encoding="UTF-8"?>
<svg width="100px" height="107px" viewBox="0 0 100 107" version="1.1" xmlns="http://www.w3.org/2000/svg" xmlns:xlink="http://www.w3.org/1999/xlink">
    <!-- Generator: Sketch 51.3 (57544) - http://www.bohemiancoding.com/sketch -->
    <title>Insightful Innovation</title>
    <desc>Created with Sketch.</desc>
    <defs></defs>
    <g id="Page-1" stroke="none" stroke-width="1" fill="none" fill-rule="evenodd">
        <g id="Why-Arbisoft-Copy" transform="translate(-547.000000, -695.000000)">
            <g id="Insightful-Innovation" transform="translate(547.000000, 695.000000)">
                <g id="Group-5">
                    <path d="M5.73197988,19.0064508 C-6.94303033,39.3812736 3.42680639,65.2298007 17.2136495,78.5442632 C29.5103955,90.420334 51.0921231,98.6679565 62.9928108,91.0708572 C71.6871492,85.5207221 69.5203091,75.1474059 82.7170829,64.6913376 C91.2954738,57.8953242 95.5264085,59.651507 98.3206278,54.8174071 C104.993347,43.2746433 91.1089246,15.53776 68.5864153,5.15352512 C49.7615971,-3.52567242 19.2335463,-2.69642776 5.73197988,19.0064508" id="Fill-10-Copy" fill="#F4F4F4"></path>
                    <path d="M83.761788,38.1425409 L82.9986372,41 L82.2354865,38.1425409 C81.594985,35.7338215 80.065958,33.7014646 78,32.5 C80.065958,31.2985354 81.594985,29.2661785 82.2354865,26.8574591 L82.9986372,24 L83.761788,26.8574591 C84.405015,29.2661785 85.9313164,31.2985354 88,32.5 C85.9313164,33.7014646 84.405015,35.7338215 83.761788,38.1425409" id="Fill-165-Copy-2" fill="#FF57A4"></path>
                    <path d="M14.4570728,88.3191417 L13.9991823,90 L13.5412919,88.3191417 C13.156991,86.902248 12.2395748,85.7067439 11,85 C12.2395748,84.2932561 13.156991,83.097752 13.5412919,81.6808583 L13.9991823,80 L14.4570728,81.6808583 C14.843009,83.097752 15.7587899,84.2932561 17,85 C15.7587899,85.7067439 14.843009,86.902248 14.4570728,88.3191417" id="Fill-165-Copy-3" fill="#FF57A4"></path>
                </g>
                <path d="M40.6853308,93.4386024 C41.6796426,93.4386024 42.4856418,94.2405386 42.4858218,95.2294381 L42.4858218,104.899951 C42.4858218,105.88885 41.6798226,106.690786 40.6855109,106.690786 C39.6911991,106.690786 38.8851999,105.88885 38.8851999,104.899951 L38.8851999,97.0109614 C33.6119089,96.8558751 28.6657345,94.7525386 24.8976836,91.0485531 L24.8078481,90.9595486 C24.2493916,90.4040314 23.7152393,89.8083994 23.2223142,89.1912775 C22.9934947,88.9047438 22.7686358,88.607286 22.5540388,88.3069628 C20.0453054,84.7956713 18.7191963,80.6559756 18.7191963,76.3348682 L18.7191963,75.5302457 L10.8003484,75.5302457 C10.259895,75.5302457 9.74788657,75.288662 9.40600751,74.8722927 C9.06412845,74.4559234 8.928385,73.908644 9.03622363,73.3819592 L12.9605415,54.2176895 L12.9605415,46.876875 C12.9605415,40.1615994 15.0354,33.7384091 18.960798,28.3012529 C19.5408582,27.4977049 20.6656926,27.3143233 21.4733121,27.8913306 C22.2809316,28.4683378 22.4654635,29.587252 21.8854033,30.3904418 C18.4023416,35.2149531 16.5611635,40.9158993 16.5611635,46.876875 L16.5611635,54.3983848 C16.5611635,54.5183708 16.5489214,54.6381777 16.5249773,54.7558356 L13.0042891,71.9485744 L20.5193273,71.9485744 C21.513639,71.9485744 22.3196383,72.7505106 22.3196383,73.73941 L22.3196383,76.3348682 C22.3196383,79.9079435 23.4154876,83.3304096 25.4887257,86.2319215 C25.6662364,86.4803104 25.8522085,86.7265503 26.0416012,86.9634779 C26.4495517,87.4745824 26.8917081,87.9675994 27.3556482,88.4290978 L27.429641,88.502343 C30.6675003,91.6850161 34.9596217,93.4386024 39.5138685,93.4386024 L40.6853308,93.4386024 Z M26.7431824,22.826131 C27.388954,23.578282 27.2996585,24.7086574 26.5435279,25.3510302 L26.4722356,25.4115604 C26.132877,25.7009595 25.716105,25.8426146 25.3014934,25.8426146 C24.7941657,25.8426146 24.2898986,25.6304005 23.9336171,25.2172548 C23.2865853,24.4661783 23.3740804,23.3358028 24.1289508,22.6919974 L24.2049239,22.6273482 C24.9612346,21.9853336 26.0975909,22.07398 26.7431824,22.826131 Z M45.0058972,15 C62.6759496,15 77.0516129,29.3000019 77.0516129,46.876875 L77.0516129,84.4862149 C77.0516129,87.4486153 74.6287543,89.8587219 71.6506799,89.8587219 L52.9162836,89.8587219 C49.9382092,89.8587219 47.5153507,87.4486153 47.5153507,84.4862149 L47.5153507,69.8873225 L32.3624931,58.0756867 C31.9269979,57.7363234 31.6726139,57.2164438 31.6726139,56.66612 L31.6726139,48.0869426 C30.7841605,47.8072141 29.9482761,47.3192114 29.2450746,46.619711 C26.9010697,44.2878638 26.9010697,40.4939785 29.2450746,38.1621313 C31.5890795,35.8306424 35.4030383,35.8304633 37.7472233,38.1621313 C40.0912282,40.4939785 40.0912282,44.2878638 37.7472233,46.619711 C37.0319597,47.3313891 36.1789724,47.8245852 35.2732359,48.1018066 L35.2732359,55.7945203 L47.5153507,65.3371672 L47.5153507,50.8444714 C47.5153507,49.8555719 48.3213499,49.0536357 49.3156617,49.0536357 C50.3099734,49.0536357 51.1159727,49.8555719 51.1159727,50.8444714 L51.1159727,58.7950654 L59.9509989,53.5554384 L59.9509989,48.8500177 C59.0268992,48.5668866 58.180213,48.0625873 57.4770115,47.3632659 C56.3415553,46.2337859 55.7161273,44.7319911 55.7161273,43.1345657 C55.7161273,41.5373193 56.3413753,40.0357036 57.4770115,38.9060445 C59.8210164,36.5745555 63.6349752,36.5745555 65.9791602,38.9060445 C68.3231651,41.2378916 68.3231651,45.0315979 65.9791602,47.363445 C65.2878408,48.0509468 64.4575373,48.5491573 63.5516208,48.8347956 L63.5516208,54.5728122 C63.5516208,55.2037236 63.2178432,55.7878942 62.6732491,56.1109609 L51.1159727,62.9650263 L51.1159727,66.9614552 L57.6514616,66.9614552 C57.93141,66.0690818 58.4246952,65.2291798 59.1340177,64.5235906 C61.4782027,62.1921016 65.2921615,62.1919225 67.6361664,64.5235906 C69.9801713,66.8554377 69.9801713,70.649144 67.6361664,72.9809911 C66.5007103,74.1104712 64.9909695,74.7326075 63.3850921,74.7326075 C61.7792147,74.7326075 60.2694739,74.1106503 59.1340177,72.980812 C58.4246952,72.2754019 57.93159,71.4354999 57.6514616,70.5433056 L51.1159727,70.5433056 L51.1159727,84.4865731 C51.1159727,85.4740399 51.9235922,86.2774087 52.9162836,86.2774087 L71.6506799,86.2774087 C72.6433714,86.2774087 73.4509909,85.4740399 73.4509909,84.4865731 L73.4509909,46.876875 C73.4509909,31.2749355 60.6907466,18.5816713 45.0060772,18.5816713 C40.5321244,18.5816713 36.2513449,19.5847184 32.2823793,21.5628755 C31.3933857,22.0061073 30.3115788,21.6481193 29.8663619,20.7639837 C29.420965,19.879669 29.7804871,18.803735 30.6694806,18.3606822 C35.1436135,16.1305546 39.9671868,15 45.0058972,15 Z M61.6800175,67.0563695 C60.7398951,67.9913648 60.7398951,69.5130379 61.6800175,70.4482122 C62.1354962,70.9012937 62.7409408,71.1509362 63.3850921,71.1509362 C64.0290633,71.1509362 64.6346879,70.9012937 65.0901666,70.4482122 C66.030289,69.5132169 66.030289,67.9915439 65.0901666,67.0563695 C64.6201054,66.5887823 64.0025987,66.3548991 63.3850921,66.3548991 C62.7675854,66.3548991 62.1500787,66.5887823 61.6800175,67.0563695 Z M59.3167493,43.1347447 C59.3167493,43.7755057 59.5675326,44.3779429 60.0230113,44.8308452 C60.9631337,45.7661987 62.4928579,45.7661987 63.4329803,44.8308452 C64.3731027,43.8958499 64.3731027,42.3741768 63.4329803,41.4390024 C62.9629191,40.9714152 62.3455925,40.7375321 61.7280858,40.7375321 C61.1105792,40.7375321 60.4930725,40.9714152 60.0230113,41.4390024 C59.5675326,41.8919048 59.3167493,42.4941628 59.3167493,43.1347447 Z M31.7912544,44.0871111 C32.7311968,45.0224646 34.2611011,45.0224646 35.2014035,44.0871111 C36.1417059,43.1521158 36.1417059,41.6302637 35.2014035,40.6950893 C34.7313423,40.2275021 34.1138356,39.993619 33.496329,39.993619 C32.8788223,39.993619 32.2613156,40.2275021 31.7912544,40.6950893 C30.850952,41.6302637 30.850952,43.1521158 31.7912544,44.0871111 Z M49.3156617,26.6705179 C53.0878533,26.6705179 56.1568434,29.7233555 56.1568434,33.4756935 C56.1568434,37.2280314 53.0878533,40.280869 49.3156617,40.280869 C45.54347,40.280869 42.4744799,37.2280314 42.4744799,33.4756935 C42.4744799,29.7233555 45.54347,26.6705179 49.3156617,26.6705179 Z M49.3156617,36.6991977 C51.1024703,36.6991977 52.5562215,35.2530979 52.5562215,33.4756935 C52.5562215,31.6982891 51.1024703,30.2521893 49.3156617,30.2521893 C47.528853,30.2521893 46.0751019,31.6982891 46.0751019,33.4756935 C46.0751019,35.2530979 47.528853,36.6991977 49.3156617,36.6991977 Z M50.5888416,43.5566656 C50.9236994,43.889582 51.1163327,44.3516176 51.1163327,44.8227864 C51.1163327,45.2937762 50.9236994,45.7558118 50.5888416,46.0887282 C50.2539838,46.4220027 49.7895035,46.6136221 49.3160217,46.6136221 C48.8425399,46.6136221 48.3780597,46.4218236 48.0432019,46.0887282 C47.708344,45.7558118 47.5157107,45.2937762 47.5157107,44.8227864 C47.5157107,44.3516176 47.708344,43.889582 48.0432019,43.5566656 C48.3780597,43.2235702 48.8425399,43.0319508 49.3160217,43.0319508 C49.7895035,43.0319508 50.2539838,43.2235702 50.5888416,43.5566656 Z" id="human" fill="#525DEA" fill-rule="nonzero"></path>
            </g>
        </g>
    </g>
</svg>