<?xml version="1.0" encoding="utf-8"?>
<!-- Generator: Adobe Illustrator 23.0.4, SVG Export Plug-In . SVG Version: 6.00 Build 0)  -->
<svg version="1.1" id="Layer_1" xmlns="http://www.w3.org/2000/svg" xmlns:xlink="http://www.w3.org/1999/xlink" x="0px" y="0px"
	 viewBox="0 0 1920 1080" style="enable-background:new 0 0 1920 1080;" xml:space="preserve">
<style type="text/css">
	.st0{fill:#2CC663;}
	.st1{fill:#00E761;}
	.st2{font-family:'NikeCombatStencil';}
	.st3{font-size:72px;}
</style>
<g id="XMLID_1_">
	<g>
		<path class="st0" d="M595.46,364.38c-7.15,3.92-14.17,8.09-21.25,12.14c-1.7,0.97-3.42,1.87-5.02,2.74
			c-1.29-4.52-2.02-8.83-3.73-12.71c-2.72-6.2-6.18-6.63-11.03-1.84c-18.24,18.05-36,36.61-54.86,53.99
			c-11.22,10.33-17.8,22.23-21.21,36.87c-4.68,20.1-10.41,39.96-15.81,59.89c-3.85,14.24-12.89,24.09-26.14,30.32
			c-23.51-52.56-13.81-132.17,50.47-179.25c62.04-45.43,145.41-35.23,194.68,14.06c-2.28,1.39-4.45,2.76-6.68,4.04
			c-30.91,17.75-61.79,35.54-92.76,53.17c-9.62,5.48-14.3,13.56-14.3,24.52c0,3.66-0.04,7.33,0.03,11c0.14,6.6,3.7,8.71,9.42,5.45
			c12.73-7.26,25.41-14.62,38.11-21.93c7.13-4.11,10.21-2.41,10.22,5.67c0.02,19.83-0.1,39.66,0.04,59.49
			c0.14,19.5-8.35,33.82-25.18,43.41c-9.12,5.2-18.07,10.68-27.27,15.73c-10.58,5.81-15.67,14.63-15.19,26.57
			c0.15,3.95-1.89,8.81,2.57,11.52c4.59,2.78,7.8-1.53,11.18-3.44c28.39-16.12,56.64-32.47,84.98-48.66
			c12.66-7.23,20.92-17.54,24.55-31.85c5.77-22.76,11.93-45.41,18.09-68.07c3.06-11.22,9.69-19.9,19.6-26.16
			c16.56,41.15,12.66,115.62-47.05,164.54c-58.77,48.15-140.79,43.53-193.37-1.56c3.82-2.27,7.47-4.49,11.16-6.62
			c30.01-17.32,60-34.65,90.04-51.91c9.38-5.39,14.11-13.34,14.04-24.15c-0.02-3.5-0.01-7-0.03-10.5c-0.06-7.79-3.25-9.72-9.91-5.91
			c-12.58,7.2-25.12,14.45-37.67,21.69c-7.03,4.06-10.13,2.31-10.15-5.86c-0.04-19.83,0-39.67-0.04-59.5
			c-0.04-19.42,8.44-33.81,25.33-43.36c9.13-5.17,18.08-10.67,27.26-15.75c10.54-5.85,15.56-14.63,15.14-26.62
			c-0.08-2.17,0.07-4.34-0.05-6.5C603.36,363.93,599.96,361.91,595.46,364.38z"/>
	</g>
	<g>
	</g>
</g>
<text transform="matrix(1 0 0 1 387.8954 719.0381)" class="st1 st2 st3">SOFTSONS</text>
</svg>
